<?xml version="1.0" encoding="utf-8"?>
<!-- Generator: Adobe Illustrator 24.1.2, SVG Export Plug-In . SVG Version: 6.00 Build 0)  -->
<svg version="1.1" id="Camada_1" xmlns="http://www.w3.org/2000/svg" xmlns:xlink="http://www.w3.org/1999/xlink" x="0px" y="0px"
	 viewBox="0 0 85.8 81.9" style="enable-background:new 0 0 85.8 81.9;" xml:space="preserve">
<style type="text/css">
	.st0{fill:none;stroke:#1F9EDF;stroke-width:3;stroke-miterlimit:10;}
	.st1{fill:#FFFFFF;}
</style>
<g>
	<circle class="st0" cx="43.7" cy="40.8" r="38.1"/>
	<g>
		<path class="st1" d="M45.4,34L45.4,34c-0.8,0.8-0.8,2.1,0,3l1.6,1.6c0.2,0.2,0,0.6-0.3,0.6h-12c-1.1,0-2.1,0.9-2.1,2.1l0,0
			c0,1.1,0.9,2.1,2.1,2.1h12c0.3,0,0.5,0.5,0.3,0.6l-1.6,1.6c-0.8,0.8-0.8,2.1,0,3l0,0c0.8,0.8,2.1,0.8,3,0l6-6
			c0.6-0.6,0.6-1.7,0-2.4l-6-6C47.5,33.3,46.2,33.3,45.4,34z"/>
	</g>
</g>
</svg>
