{
  "asset": {
    "version": "2.0",
    "generator": "THREE.GLTFExporter"
  },
  "scenes": [
    {
      "name": "Scene",
      "nodes": [
        0
      ]
    }
  ],
  "scene": 0,
  "nodes": [
    {
      "name": "Icosahedron 1",
      "mesh": 0
    }
  ],
  "bufferViews": [
    {
      "buffer": 0,
      "byteOffset": 0,
      "byteLength": 450000,
      "target": 34962,
      "byteStride": 12
    },
    {
      "buffer": 0,
      "byteOffset": 450000,
      "byteLength": 450000,
      "target": 34962,
      "byteStride": 12
    },
    {
      "buffer": 0,
      "byteOffset": 900000,
      "byteLength": 300000,
      "target": 34962,
      "byteStride": 8
    }
  ],
  "buffers": [
    {
      "byteLength": 1200000,
      "uri": "data:application/octet-stream;base64,"
    }
  ],
  "accessors": [
    {
      "bufferView": 0,
      "componentType": 5126,
      "count": 37500,
      "max": [
        0.9996945858001709,
        0.9996945858001709,
        0.9996945858001709
      ],
      "min": [
        -0.9996945858001709,
        -0.9996945858001709,
        -0.9996945858001709
      ],
      "type": "VEC3"
    },
    {
      "bufferView": 1,
      "componentType": 5126,
      "count": 37500,
      "max": [
        0.9996945858001709,
        0.9996945858001709,
        0.9996945858001709
      ],
      "min": [
        -0.9996945858001709,
        -0.9996945858001709,
        -0.9996945858001709
      ],
      "type": "VEC3"
    },
    {
      "bufferView": 2,
      "componentType": 5126,
      "count": 37500,
      "max": [
        1.0062094926834106,
        0.9921325445175171
      ],
      "min": [
        0,
        0.007867450825870037
      ],
      "type": "VEC2"
    }
  ],
  "meshes": [
    {
      "primitives": [
        {
          "mode": 1,
          "attributes": {
            "POSITION": 0,
            "NORMAL": 1,
            "TEXCOORD_0": 2
          }
        }
      ]
    }
  ]
}