<?xml version="1.0" encoding="utf-8"?>
<!-- Generator: Adobe Illustrator 25.4.1, SVG Export Plug-In . SVG Version: 6.00 Build 0)  -->
<svg version="1.1" id="Camada_1" xmlns="http://www.w3.org/2000/svg" xmlns:xlink="http://www.w3.org/1999/xlink" x="0px" y="0px"
	 width="150px" height="51.8px" viewBox="0 0 150 51.8" style="enable-background:new 0 0 150 51.8;" xml:space="preserve">
<style type="text/css">
	.st0{fill:#E13505;}
	.st1{fill:#FFFFFF;}
</style>
<path id="Caminho_4091" class="st0" d="M38.1,43.6c-0.8-2-1.7-4.6-2.5-7.2c-1.5-4.9-2.7-9.6-2.7-9.6c1-0.6,9.5-6.4,15.6-9.9
	c0.1-0.1,1.9-1.1,2.1-2.3c0-0.3,0-0.7-0.1-1c-0.3-0.9-1.1-1.7-3.3-1.9c-2.7-0.2-5.4-0.3-8-0.1c-3.1,0.1-6.2,0.4-9.3,0.9
	c0,0-1-6.3-1.4-8.9C28.4,3.1,28.3,2.5,28,2s-0.8-0.9-1.4-1s-1.2,0-1.7,0.3c-0.4,0.4-0.8,0.8-1.1,1.3c-1.6,2.3-6.3,9.2-8.6,13.1
	c0,0-7.2,2.2-11.6,4c-1.3,0.5-1.4,1.2-1.5,1.5c0,0.3,0,0.9,1,1.8c1.3,1.1,5.3,4.4,5.3,4.4C7,29.6,1.5,40.8,1,43.9
	c-0.2,0.9,0,1.9,0.5,2.7c0.5,0.6,1.2,0.9,1.9,0.9c0.9,0,2.2-1,2.7-1.4C10.5,43,19,36.5,19,36.5c3.2,2.9,10,9.1,13.5,12.4
	c0.8,0.9,1.9,1.4,3,1.6c1.7,0.1,3.1-1.1,3.4-2.8C39,46.4,38.7,44.9,38.1,43.6z M4.9,21.8c-0.1-0.1-0.4-0.3-0.4-0.6
	c0-0.2,0.1-0.3,0.3-0.4c0.1-0.1,0.3-0.1,0.4-0.2c2.9-1,5.8-1.9,8.7-2.6c-1.2,2.1-2,3.4-2.5,4.3c-1.3,2.2-1.3,2.3-1.8,3.2
	C9.6,25.5,5.8,22.5,4.9,21.8z M7,39.7c-0.1,0.1-0.6,0.4-0.7,0.4c-1,0.5-1.2-0.1-1.2-0.3c0-0.5,0.1-1,0.3-1.4c0.9-2,4.6-9.7,4.6-9.7
	s4.5,3.9,5.7,4.9C15.6,33.5,9.1,38.3,7,39.7L7,39.7z M30.5,36.8c0.8,2.6,1.6,5.3,2.1,6.6c0.1,0.3,0.1,0.6,0,0.9
	c-0.1,0.2-0.3,0.3-0.6,0.1c-0.2-0.1-0.4-0.2-0.5-0.4c-1.7-1.5-10.3-9-10.3-9l7.4-5.2C28.5,29.8,29.5,33.5,30.5,36.8L30.5,36.8z
	 M17.6,32.1c0,0-6.2-5.2-6.6-5.5c0,0,3.9-7.4,5.2-9.3c0.8-0.2,6.5-1.3,9.3-1.6c0,0,0.8,4.5,2,9.6C27.5,25.4,19.5,30.7,17.6,32.1
	L17.6,32.1z M34.9,14.9c2.7-0.1,5.5-0.2,5.7-0.1c0.7,0,1.2,0.1,1.3,0.4c0.1,0.4-0.2,0.8-0.6,1.2c-0.1,0.1-1.7,1.1-3.4,2.3
	c-2.6,1.8-5.9,3.9-5.9,3.9c0,0.1-1.3-5.7-1.5-7.3C30.4,15.2,32.6,15,34.9,14.9L34.9,14.9z M22.8,7.3c0.1-0.1,0.5-0.6,0.8-0.6
	S24,7.1,24,7.3c0.1,0.5,0.2,1.2,0.4,2.3c0.3,1.7,0.6,3.6,0.6,3.6c-1.8,0.3-6,1.4-7.4,1.8C19.1,12.6,21.9,8.5,22.8,7.3L22.8,7.3z"/>
<g id="Grupo_2815" transform="translate(381.251 233.226)">
	<path id="Caminho_4092" class="st1" d="M-312.7-204.6c-1.6,0.9-3.5,1.4-5.4,1.3c-5.4,0-8.3-3.4-8.3-8.2c0-4.6,3.4-8.4,8.7-8.4
		c1.5,0,3,0.2,4.3,0.8v3.1c-1.3-0.7-2.8-1.1-4.2-1.1c-3.5,0-5.2,2.6-5.2,5.6c0,3.2,2,5.4,5.2,5.4c1.4,0,2.8-0.4,4-1.2L-312.7-204.6z
		"/>
	<path id="Caminho_4093" class="st1" d="M-308.6-208.4c0.1,1.6,1.3,2.5,3.1,2.5c1,0,2.1-0.3,3-0.8l1,2.3c-1.3,0.8-2.7,1.1-4.2,1.1
		c-4.4,0-6.1-2.9-6.1-6c0-3.5,1.9-6.2,5.4-6.2c3.4,0,5.4,2.4,5.4,6.3v0.8L-308.6-208.4z M-304.5-210.6c0-1.2-0.6-2.3-2.1-2.3
		c-1.2,0-2.1,1-2.1,2.1c0,0.1,0,0.1,0,0.2H-304.5z"/>
	<path id="Caminho_4094" class="st1" d="M-299.3-206.8c1,0.6,2.1,1,3.3,1c1.1,0,1.9-0.3,1.9-1c0-1.8-5.5-1.1-5.5-5
		c0-2.1,1.8-3.6,4.6-3.6c1.2,0,2.4,0.2,3.6,0.6v2.8c-1.1-0.5-2.2-0.8-3.4-0.8c-1,0-1.5,0.3-1.5,0.9c0,1.6,5.5,1,5.5,5.1
		c0,2.6-2.3,3.7-4.9,3.7c-1.6,0-3.2-0.4-4.5-1.2L-299.3-206.8z"/>
	<path id="Caminho_4095" class="st1" d="M-288.9-205.6c-0.3-0.8-0.4-1.7-0.4-2.6v-7h3.3v6.7c0,0.5,0.1,0.9,0.2,1.4
		c0.3,0.6,1,1,1.7,1c0.8,0,1.5-0.3,2.1-0.8v-8.2h3.3v9.1c0,0.8,0,1.7,0.2,2.5h-2.8l-0.5-1.2c-0.9,0.9-2.2,1.4-3.5,1.4
		C-286.8-203.2-288.2-204.1-288.9-205.6z"/>
	<path id="Caminho_4096" class="st1" d="M-276.7-209.2c-0.1-3.4,2.6-6.1,6-6.2c0.1,0,0.2,0,0.3,0c1.1,0,2.2,0.3,3.2,0.8v2.8
		c-0.8-0.6-1.8-1-2.9-1c-1.8,0-3.2,1.4-3.3,3.2c0,0.1,0,0.2,0,0.3c0,2.2,1.2,3.4,3.1,3.4c0.9,0,1.9-0.3,2.7-0.8l0.9,2.3
		c-1.2,0.8-2.6,1.2-4.1,1.2c-3.1,0.2-5.8-2.1-6-5.2C-276.8-208.7-276.8-209-276.7-209.2z"/>
	<path id="Caminho_4097" class="st1" d="M-258.8-204.6c-0.9,0.8-2.1,1.3-3.3,1.3c-2,0.1-3.8-1.4-3.9-3.5c0-0.1,0-0.2,0-0.3
		c-0.1-1.4,0.7-2.6,1.9-3.2c0.9-0.5,2-0.7,3-0.7l1.9-0.1v-0.2c0-1.2-0.9-1.7-2.1-1.7c-1,0-2.1,0.3-3,0.8l-1.1-2.1
		c1.4-0.7,3-1.1,4.7-1.1c3.3,0,4.9,1.5,4.9,4.3v5c0,0.9,0,1.8,0.2,2.6h-2.8L-258.8-204.6z M-260.5-208.7c-0.5,0-1.1,0.1-1.5,0.3
		s-0.6,0.7-0.6,1.2c0,0.9,0.6,1.4,1.6,1.4c0.7,0,1.4-0.2,2-0.6v-2.3L-260.5-208.7z"/>
</g>
<g id="Grupo_2816" transform="translate(381.057 254.231)">
	<path id="Caminho_4098" class="st1" d="M-320.4-212.3c-0.7,0.4-1.5,0.6-2.3,0.6c-2,0.1-3.7-1.4-3.8-3.4c0-0.2,0-0.3,0-0.5
		c-0.1-2.1,1.6-3.9,3.7-4c0.1,0,0.2,0,0.2,0c0.7,0,1.3,0.1,2,0.4v1c-0.6-0.3-1.3-0.5-1.9-0.5c-1.6,0-2.9,1.3-2.9,2.9
		c0,0.1,0,0.1,0,0.2c-0.2,1.5,0.9,2.9,2.4,3c0.1,0,0.2,0,0.3,0c0.7,0,1.3-0.2,1.9-0.5L-320.4-212.3z"/>
	<path id="Caminho_4099" class="st1" d="M-318.6-214.4c-0.1,0.9,0.6,1.8,1.6,1.8c0.1,0,0.1,0,0.2,0c0.5,0,1-0.1,1.4-0.4l0.3,0.7
		c-0.5,0.3-1.2,0.5-1.8,0.5c-1.5,0-2.7-1.1-2.7-2.6c0-0.1,0-0.3,0-0.4c0-1.7,0.9-2.9,2.4-2.9s2.3,1.1,2.3,2.9v0.3L-318.6-214.4z
		 M-316.1-215.2c0-0.8-0.4-1.6-1.2-1.6c-0.8,0.1-1.4,0.7-1.3,1.5c0,0,0,0,0,0.1H-316.1z"/>
	<path id="Caminho_4100" class="st1" d="M-313.8-217.4h0.9l0.1,0.7c0.5-0.5,1.2-0.8,1.9-0.8c0.9,0,1.7,0.5,1.7,2v3.7h-1v-3.4
		c0-0.8-0.2-1.4-1-1.4c-0.6,0.1-1.2,0.3-1.6,0.8v4h-1V-217.4z"/>
	<path id="Caminho_4101" class="st1" d="M-307.3-213.1v-3.5h-1v-0.8h1v-1.3l1-0.3v1.6h1.7l-0.3,0.8h-1.4v3.3c0,0.5,0.2,0.7,0.6,0.7
		c0.3,0,0.6-0.1,0.9-0.3l0.3,0.7c-0.4,0.3-0.9,0.4-1.5,0.4c-0.7,0.1-1.2-0.4-1.3-1.1C-307.3-213.1-307.3-213-307.3-213.1z"/>
	<path id="Caminho_4102" class="st1" d="M-303.5-217.4h0.9l0.1,0.7c0.4-0.5,0.9-0.8,1.6-0.8c0.2,0,0.5,0.1,0.7,0.2l-0.4,0.9
		c-0.2-0.1-0.4-0.1-0.5-0.1c-0.5,0.1-1,0.3-1.3,0.7v4h-1L-303.5-217.4z"/>
	<path id="Caminho_4104" class="st1" d="M-290.6-213.3c-0.1-0.4-0.2-0.9-0.2-1.3v-4.9h1v4.9c0,0.4,0,0.7,0.2,1.1
		c0.5,1,1.7,1.3,2.7,0.8c0.3-0.2,0.6-0.5,0.8-0.8c0.1-0.4,0.2-0.7,0.2-1.1v-4.8h1v4.9c0,0.5-0.1,0.9-0.2,1.4c-0.9,1.5-2.9,2-4.4,1.1
		C-289.9-212.4-290.3-212.8-290.6-213.3L-290.6-213.3z"/>
	<path id="Caminho_4105" class="st1" d="M-283.1-217.4h0.9l0.1,0.7c0.5-0.5,1.2-0.8,1.9-0.8c0.9,0,1.7,0.5,1.7,2v3.7h-1v-3.4
		c0-0.8-0.2-1.4-1-1.4c-0.6,0.1-1.2,0.3-1.6,0.8v4h-1V-217.4z"/>
	<path id="Caminho_4106" class="st1" d="M-277.1-219.2c0-0.4,0.3-0.7,0.7-0.6c0.3,0,0.6,0.3,0.6,0.6c0,0.4-0.3,0.7-0.7,0.7l0,0
		C-276.8-218.5-277.1-218.8-277.1-219.2L-277.1-219.2z M-277-217.4h1v5.6h-1V-217.4z"/>
	<path id="Caminho_4107" class="st1" d="M-275-217.4h1.1l1.5,4.2l0,0l1.5-4.2h1.1l-2.2,5.6h-0.8L-275-217.4z"/>
	<path id="Caminho_4108" class="st1" d="M-268.3-214.4c-0.1,0.9,0.6,1.8,1.6,1.8c0.1,0,0.1,0,0.2,0c0.5,0,1-0.1,1.4-0.4l0.3,0.7
		c-0.5,0.3-1.2,0.5-1.8,0.5c-1.5,0-2.7-1.1-2.7-2.6c0-0.1,0-0.3,0-0.4c0-1.7,0.9-2.9,2.4-2.9s2.3,1.1,2.3,2.9v0.3L-268.3-214.4z
		 M-265.8-215.2c0-0.8-0.4-1.6-1.2-1.6c-0.8,0.1-1.4,0.7-1.3,1.5c0,0,0,0,0,0.1H-265.8z"/>
	<path id="Caminho_4109" class="st1" d="M-263.5-217.4h0.9l0.1,0.7c0.4-0.5,0.9-0.8,1.6-0.8c0.2,0,0.5,0.1,0.7,0.2l-0.4,0.9
		c-0.2-0.1-0.4-0.1-0.5-0.1c-0.5,0.1-1,0.3-1.3,0.7v4h-1L-263.5-217.4z"/>
	<path id="Caminho_4110" class="st1" d="M-259.9-213c0.4,0.3,0.9,0.4,1.4,0.4c0.6,0,1.1-0.2,1.1-0.8c0-1.1-2.6-0.8-2.6-2.6
		c0-0.9,0.7-1.6,2-1.6c0.5,0,1,0.1,1.5,0.3v0.9c-0.4-0.2-0.9-0.3-1.4-0.3s-1,0.2-1,0.7c0,1.1,2.6,0.7,2.6,2.6c0,1.1-1,1.7-2.1,1.7
		c-0.6,0-1.3-0.2-1.8-0.5L-259.9-213z"/>
	<path id="Caminho_4111" class="st1" d="M-255.2-219.2c0-0.4,0.3-0.7,0.7-0.7s0.7,0.3,0.7,0.7s-0.3,0.7-0.7,0.7l0,0
		C-254.9-218.5-255.2-218.8-255.2-219.2L-255.2-219.2z M-255-217.4h1v5.6h-1V-217.4z"/>
	<path id="Caminho_4113" class="st1" d="M-245.1-212.4c-0.4,0.4-1,0.7-1.7,0.7c-0.9,0.1-1.7-0.6-1.8-1.6c0-0.1,0-0.1,0-0.2
		c0-0.6,0.3-1.2,0.9-1.5c0.4-0.2,0.9-0.3,1.4-0.3h1v-0.3c0.1-0.6-0.4-1.1-0.9-1.1c-0.1,0-0.2,0-0.2,0c-0.5,0-1.1,0.2-1.5,0.4
		l-0.4-0.7c0.6-0.4,1.3-0.6,2-0.6c1-0.1,1.9,0.5,2,1.5c0,0.1,0,0.3,0,0.4v2c0,0.6,0,1.2,0.1,1.7h-0.9L-245.1-212.4z M-246.1-214.5
		c-0.3,0-0.7,0.1-1,0.2c-0.3,0.2-0.5,0.5-0.4,0.8c0,0.5,0.3,0.9,0.8,1h0.1c0.5,0,1-0.3,1.4-0.6v-1.3L-246.1-214.5z M-246.1-219.8
		h1.2l-1,1.7h-0.8L-246.1-219.8z"/>
	<path id="Caminho_4114" class="st1" d="M-242.7-217.4h0.9l0.1,0.7c0.4-0.5,0.9-0.8,1.6-0.8c0.2,0,0.5,0.1,0.7,0.2l-0.4,0.9
		c-0.2-0.1-0.4-0.1-0.5-0.1c-0.5,0.1-1,0.3-1.3,0.7v4h-1v-5.6H-242.7z"/>
	<path id="Caminho_4115" class="st1" d="M-238.8-219.2c0-0.4,0.3-0.7,0.7-0.7s0.7,0.3,0.7,0.7s-0.3,0.7-0.7,0.7l0,0
		C-238.5-218.5-238.8-218.8-238.8-219.2L-238.8-219.2z M-238.7-217.4h1v5.6h-1V-217.4z"/>
	<path id="Caminho_4090" class="st1" d="M-300.1-214.6c0.1-1.5,0.7-2.8,2.6-2.8c2.1,0,2.8,1.8,2.6,3.3c-0.1,1.4-1.3,2.4-2.6,2.4
		c-1.5,0-2.7-1.2-2.6-2.7C-300.1-214.5-300.1-214.6-300.1-214.6z M-295.8-214.6c0-1.2-0.6-2.1-1.6-2.1s-1.6,0.9-1.6,2.1s0.6,2,1.6,2
		S-295.8-213.4-295.8-214.6L-295.8-214.6z"/>
	<path id="Caminho_4090_00000062910034436736501060000017848752589139801506_" class="st1" d="M-236.3-214.6
		c0.1-1.5,0.7-2.8,2.6-2.8c2.1,0,2.8,1.8,2.6,3.3c-0.1,1.4-1.3,2.4-2.6,2.4c-1.5,0-2.7-1.2-2.6-2.7
		C-236.3-214.5-236.3-214.6-236.3-214.6z M-232.1-214.6c0-1.2-0.6-2.1-1.6-2.1s-1.6,0.9-1.6,2.1s0.6,2,1.6,2
		S-232.1-213.4-232.1-214.6L-232.1-214.6z"/>
	<path id="Caminho_4101_00000101800950765793181750000013831239045300837785_" class="st1" d="M-252-213.1v-3.5h-1v-0.8h1v-1.3
		l1-0.3v1.6h1.7l-0.3,0.8h-1.4v3.3c0,0.5,0.2,0.7,0.6,0.7c0.3,0,0.6-0.1,0.9-0.3l0.3,0.7c-0.4,0.3-0.9,0.4-1.5,0.4
		c-0.7,0.1-1.2-0.4-1.3-1.1C-252-213.1-252-213-252-213.1z"/>
</g>
</svg>
