<?xml version="1.0" encoding="utf-8"?>
<!-- Generator: Adobe Illustrator 25.4.1, SVG Export Plug-In . SVG Version: 6.00 Build 0)  -->
<svg version="1.1" id="Camada_1" xmlns="http://www.w3.org/2000/svg" xmlns:xlink="http://www.w3.org/1999/xlink" x="0px" y="0px"
	 width="146.9px" height="52.8px" viewBox="0 0 146.9 52.8" style="enable-background:new 0 0 146.9 52.8;" xml:space="preserve">
<style type="text/css">
	.st0{fill-rule:evenodd;clip-rule:evenodd;fill:#FFFFFF;}
	.st1{fill-rule:evenodd;clip-rule:evenodd;fill:#DC0000;}
	.st2{fill:#FFFFFF;}
</style>
<g>
	<path id="Caminho_2801" class="st0" d="M63.8,24.7c-1.2,0.7-2.5,1.1-3.8,1.1c-3,0-4.9-2.1-4.9-5.2c0-2.8,1.6-5.3,5-5.3
		c1.4,0,2.8,0.3,4.1,1v-3c-1.3-0.5-2.7-0.8-4.1-0.8c-5.1,0-8.4,3.6-8.4,8c0,4.5,2.8,7.8,8,7.8c1.8,0,3.6-0.4,5.1-1.3L63.8,24.7
		L63.8,24.7z M66.4,28.3h8.9v-2.7h-5.7v-3.8h4.9v-2.7h-4.9v-3.6h4.9l0.8-2.7h-8.9L66.4,28.3L66.4,28.3z M84.1,28.5
		c2.9,0,5-0.9,6-2.9c0.5-1,0.7-2.1,0.7-3.2v-9.6h-3.2v9.4c0,0.7-0.1,1.4-0.4,2.1c-1.2,1.7-3.5,2-5.1,0.9c-0.3-0.2-0.6-0.5-0.9-0.9
		c-0.3-0.6-0.5-1.3-0.4-2v-9.4h-3.2v9.6c0,1.1,0.2,2.2,0.7,3.2C79.1,27.6,81.2,28.5,84.1,28.5L84.1,28.5z M107.6,28.3V12.8h-3.2v7.7
		c0,0.7,0,1.8,0,2.6h0c-0.5-0.7-1-1.4-1.6-2.1l-6.2-8.1h-3.2v15.5h3.2V20c0-0.8,0-1.5-0.1-2.3h0c0.5,0.7,1,1.4,1.6,2.1l6.5,8.5
		L107.6,28.3z M109.6,27.1c1.4,1,3.1,1.4,4.9,1.4c3.2,0,5.7-1.7,5.7-4.5c0-4.9-6.6-4.5-6.6-7.2c0-1.1,0.9-1.4,1.9-1.4
		c1.3,0,2.6,0.4,3.8,1v-2.9c-1.2-0.6-2.6-0.8-3.9-0.8c-3.3,0-5.2,2.1-5.2,4.4c0,4.7,6.6,4.4,6.6,7.2c0,1.2-1.2,1.6-2.4,1.6
		c-1.3,0-2.5-0.4-3.5-1.1L109.6,27.1L109.6,27.1z M122.3,28.3h3.2v-5.2h0.5c1.1,0,2.2-0.2,3.3-0.5c1.9-0.7,3.2-2.6,3.1-4.6
		c0.1-1.9-0.9-3.7-2.6-4.5c-1.1-0.5-2.3-0.7-3.5-0.7h-4L122.3,28.3L122.3,28.3z M125.5,20.5v-5.1h0.7c0.6,0,1.2,0.1,1.8,0.4
		c0.7,0.5,1.2,1.3,1.1,2.2c0.1,0.9-0.4,1.8-1.2,2.3c-0.5,0.2-1.1,0.3-1.7,0.3L125.5,20.5z"/>
	<g id="Grupo_2678" transform="translate(359.349 267.742)">
		<path id="Caminho_2802" class="st1" d="M-337.7-260.6c0.1-0.1,0.5-0.6,0.8-0.6s0.4,0.4,0.4,0.6c0.1,0.5,0.2,1.1,0.3,2.2
			c0.3,1.6,0.6,3.4,0.6,3.4c-1.7,0.3-5.6,1.3-6.9,1.6C-341.2-255.7-338.6-259.5-337.7-260.6L-337.7-260.6z M-326.5-253.5
			c2.5-0.1,5.1-0.1,5.3-0.1c0.6,0,1.1,0.1,1.2,0.3c0.1,0.4-0.2,0.8-0.6,1.1c-0.1,0.1-1.6,1.1-3.2,2.1c-2.5,1.7-5.5,3.7-5.5,3.7
			c0,0.1-1.2-5.3-1.4-6.8C-330.6-253.2-328.6-253.4-326.5-253.5L-326.5-253.5z M-342.6-237.5c0,0-5.8-4.8-6.1-5.1
			c0,0,3.7-6.9,4.8-8.6c0.7-0.2,6.1-1.2,8.6-1.5c0,0,0.8,4.2,1.9,9C-333.4-243.8-340.8-238.8-342.6-237.5L-342.6-237.5z
			 M-330.6-233.1L-330.6-233.1c-0.9-3.1-1.8-6.5-1.8-6.5l-6.9,4.9c0,0,8,7,9.5,8.4c0.2,0.1,0.3,0.2,0.5,0.4c0.2,0.1,0.5,0.1,0.6-0.1
			c0,0,0,0,0,0c0.1-0.3,0.1-0.6,0-0.8C-329-228.2-329.9-230.7-330.6-233.1L-330.6-233.1z M-352.4-230.4L-352.4-230.4
			c2-1.3,8.1-5.8,8.1-5.8c-1-0.9-5.3-4.5-5.3-4.5s-3.4,7.2-4.3,9.1c-0.2,0.4-0.3,0.9-0.3,1.3c0.1,0.2,0.2,0.8,1.1,0.3
			C-353-230.1-352.5-230.4-352.4-230.4z M-354.3-247.1L-354.3-247.1c0.9,0.7,4.3,3.5,4.3,3.5c0.5-0.9,0.5-0.9,1.7-3
			c0.5-0.9,1.3-2.1,2.4-4c-2.7,0.7-5.5,1.5-8.1,2.4c-0.1,0-0.3,0.1-0.4,0.2c-0.1,0.1-0.2,0.2-0.3,0.4
			C-354.7-247.5-354.4-247.2-354.3-247.1L-354.3-247.1z M-323.4-226.8c-0.7-1.9-1.6-4.2-2.3-6.7c-1.4-4.5-2.5-8.9-2.5-9
			c0.9-0.6,8.8-6,14.5-9.2c0.1-0.1,1.8-1,1.9-2.2c0-0.3,0-0.6-0.1-0.9c-0.3-0.9-1-1.6-3-1.8c-2.5-0.2-5-0.2-7.5-0.1
			c-2.9,0.1-5.8,0.4-8.6,0.8c0,0-1-5.9-1.3-8.3c-0.1-0.5-0.2-1-0.4-1.5c-0.3-0.5-0.8-0.8-1.3-0.9c-0.1,0-0.3,0-0.4,0h0
			c-0.4,0-0.8,0.1-1.1,0.4c-0.4,0.4-0.7,0.8-1,1.2c-1.5,2.2-5.8,8.5-8,12.2c0,0-6.7,2.1-10.8,3.8c-1.2,0.5-1.3,1.1-1.4,1.4
			c0,0.2,0,0.9,0.9,1.7c1.2,1,4.9,4.1,4.9,4.1c-1.3,2.1-6.4,12.5-6.9,15.4c-0.2,0.9,0,1.8,0.5,2.5c0.4,0.5,1.1,0.8,1.8,0.9
			c0.9-0.2,1.8-0.6,2.6-1.3c4-2.9,12-9,12-9c3,2.7,9.3,8.4,12.6,11.5c0.7,0.8,1.7,1.3,2.8,1.5c1.5,0.1,2.9-1,3.1-2.6
			C-322.6-224.3-322.9-225.6-323.4-226.8L-323.4-226.8z"/>
	</g>
	<g>
		<path class="st0" d="M57.4,38.6c-0.6,0.3-1.2,0.5-1.9,0.5c-1.5,0-2.8-1.2-2.8-2.8c0-0.1,0-0.2,0-0.3c-0.1-1.6,1.1-3,2.7-3.1
			c0.1,0,0.1,0,0.2,0c0.7,0,1.4,0.2,2,0.5v-1c-0.6-0.3-1.3-0.4-2-0.4c-2.2,0-4,1.7-4,3.8c0,0.1,0,0.2,0,0.3c-0.2,2,1.3,3.8,3.3,4
			c0.2,0,0.3,0,0.5,0c0.8,0,1.6-0.2,2.3-0.6L57.4,38.6L57.4,38.6z"/>
		<path class="st0" d="M58.6,51.4v-7.9h-1.1v4.8c0,0.6,0,0.9,0,1.4h0c-0.3-0.4-0.6-0.9-1.1-1.5l-3.5-4.7h-1v7.9h1.1v-4.9
			c0-0.6,0-0.9,0-1.3h0c0.3,0.4,0.6,0.9,1,1.4l3.7,4.8L58.6,51.4z"/>
		<path class="st0" d="M60.7,51.5c0.4,0,0.7-0.3,0.7-0.6c0-0.4-0.3-0.7-0.6-0.7c-0.4,0-0.7,0.3-0.7,0.6c0,0,0,0,0,0
			C60.1,51.2,60.4,51.5,60.7,51.5C60.7,51.5,60.7,51.5,60.7,51.5z"/>
		<path class="st0" d="M65.2,50.9c0.6,0.4,1.4,0.6,2.2,0.6c1.5,0,2.6-0.8,2.6-2.2c0-2.5-3.5-2.3-3.5-4c0-0.8,0.7-1.1,1.3-1.1
			c0.6,0,1.2,0.2,1.7,0.4v-1c-0.6-0.3-1.2-0.4-1.8-0.4c-1.2-0.1-2.2,0.7-2.4,1.9c0,0.1,0,0.1,0,0.2c0,2.4,3.4,2.2,3.4,3.9
			c0,0.9-0.7,1.2-1.5,1.2c-0.6,0-1.2-0.2-1.7-0.5L65.2,50.9L65.2,50.9z"/>
		<path class="st0" d="M71.1,51.4h1.1v-4.1c0.3-0.4,0.8-0.7,1.3-0.7c0.2,0,0.4,0.1,0.5,0.1l0.4-0.9c-0.2-0.1-0.4-0.2-0.7-0.2
			c-0.6,0-1.2,0.3-1.6,0.8L72,45.8h-0.9L71.1,51.4L71.1,51.4z"/>
		<path class="st0" d="M78.9,49.7v-2.1c0.1-1-0.6-1.9-1.7-2c-0.2,0-0.3,0-0.4,0c-0.7,0-1.4,0.2-2,0.6l0.4,0.7c0.5-0.3,1-0.4,1.5-0.4
			c0.6-0.1,1.1,0.3,1.2,0.9c0,0.1,0,0.2,0,0.2v0.3l-1.1,0c-0.5,0-1,0.1-1.4,0.3c-0.6,0.3-1,0.9-1,1.5c0,1,0.7,1.7,1.6,1.8
			c0.1,0,0.1,0,0.2,0c0.6,0,1.2-0.3,1.7-0.7l0.2,0.6H79C78.9,50.8,78.9,50.2,78.9,49.7z M77.9,50c-0.3,0.4-0.8,0.6-1.4,0.6
			c-0.5,0-0.9-0.3-1-0.8v-0.1c0-0.3,0.2-0.6,0.5-0.8c0.3-0.1,0.6-0.2,1-0.2l0.9,0V50z"/>
		<path class="st0" d="M80.8,51.5c0.4,0,0.7-0.3,0.7-0.6c0-0.4-0.3-0.7-0.6-0.7c-0.4,0-0.7,0.3-0.7,0.6c0,0,0,0,0,0
			C80.2,51.2,80.4,51.5,80.8,51.5C80.8,51.5,80.8,51.5,80.8,51.5z"/>
		<path class="st0" d="M89,42.9v2.8c-0.3-0.1-0.6-0.1-0.9-0.1c-1.6,0-3,1.2-3,2.8v0.2c-0.1,1.5,1.1,2.8,2.7,2.9c0.1,0,0.2,0,0.4,0
			c0.7,0,1.3-0.1,1.9-0.4v-8.2H89z M89,50.5c-0.3,0.1-0.5,0.1-0.8,0.1c-1,0.1-1.9-0.7-2-1.7c0-0.1,0-0.2,0-0.3
			c-0.1-1.1,0.7-2,1.7-2.1c0.1,0,0.1,0,0.2,0c0.3,0,0.6,0,0.8,0.1V50.5z"/>
		<path class="st0" d="M104.5,44.9c-0.2-0.4-0.5-0.8-0.9-1c-0.5-0.3-1.1-0.4-1.7-0.4h-1.6v7.9h1.1v-2.9h0.5c0.6,0,1.1-0.1,1.6-0.3
			C104.7,47.7,105.2,46.1,104.5,44.9z M103,47.5c-0.3,0.2-0.7,0.2-1.1,0.2h-0.5v-3.3h0.5c0.4,0,0.8,0.1,1.1,0.2
			c0.5,0.3,0.8,0.8,0.7,1.4C103.8,46.6,103.5,47.2,103,47.5z"/>
		<path class="st0" d="M109.9,49.7v-2.1c0.1-1-0.6-1.9-1.6-2c-0.2,0-0.3,0-0.5,0c-0.7,0-1.4,0.2-2,0.6l0.4,0.7
			c0.5-0.3,1-0.4,1.5-0.4c0.6-0.1,1.1,0.3,1.2,0.9c0,0.1,0,0.2,0,0.2v0.3l-1,0c-0.5,0-1,0.1-1.4,0.3c-0.6,0.3-1,0.9-1,1.5
			c0,1,0.7,1.7,1.6,1.8c0.1,0,0.1,0,0.2,0c0.6,0,1.2-0.3,1.7-0.7l0.2,0.6h0.9C109.9,50.8,109.9,50.2,109.9,49.7z M108.9,50
			c-0.4,0.4-0.8,0.6-1.4,0.6c-0.5,0-0.9-0.3-1-0.8v-0.1c0-0.3,0.2-0.6,0.4-0.8c0.3-0.1,0.7-0.2,1-0.2l0.9,0V50z"/>
		<path class="st0" d="M113,51.5c0.5,0,1.1-0.2,1.5-0.4l-0.3-0.7c-0.3,0.2-0.6,0.3-0.9,0.3c-0.4,0-0.6-0.2-0.6-0.7v-3.3h1.4l0.3-0.9
			h-1.7v-1.6l-1.1,0.3v1.3h-1v0.9h1v3.5c-0.1,0.7,0.4,1.3,1.1,1.4C112.8,51.6,112.9,51.6,113,51.5L113,51.5z"/>
		<path class="st0" d="M115.2,51.4h1.1v-4.1c0.3-0.4,0.8-0.7,1.3-0.7c0.2,0,0.4,0.1,0.6,0.1l0.4-0.9c-0.2-0.1-0.4-0.2-0.7-0.2
			c-0.6,0-1.2,0.3-1.6,0.8l-0.1-0.7h-0.9L115.2,51.4L115.2,51.4z"/>
		<path class="st0" d="M127.2,51.5c0.6,0,1.3-0.2,1.8-0.5l-0.3-0.7c-0.4,0.3-0.9,0.4-1.4,0.4c-1.1,0-1.8-0.8-1.8-2.1
			c-0.1-1,0.6-2,1.7-2.1c0.1,0,0.1,0,0.2,0c0.5,0,1,0.1,1.4,0.4V46c-0.4-0.2-0.9-0.4-1.4-0.4c-1.6,0-2.9,1.3-2.9,2.8
			c0,0.1,0,0.1,0,0.2c-0.1,1.5,1,2.8,2.4,2.9C127,51.5,127.1,51.5,127.2,51.5L127.2,51.5z"/>
		<polygon class="st0" points="129.8,45.1 130.6,45.1 131.6,43.3 130.5,43.3 129.8,45.1 		"/>
		<rect x="129.8" y="45.8" class="st0" width="1.1" height="5.7"/>
		<path class="st0" d="M132.2,51.4h1.1v-4.1c0.4-0.4,1-0.7,1.6-0.8c0.8,0,1,0.6,1,1.4v3.4h1.1v-3.8c0-1.5-0.8-2-1.7-2
			c-0.7,0-1.4,0.3-2,0.8l-0.1-0.7h-0.9L132.2,51.4L132.2,51.4z"/>
		<rect x="138.2" y="45.8" class="st0" width="1.1" height="5.7"/>
		<path class="st0" d="M138.7,44.6c0.4,0,0.7-0.3,0.7-0.7c0,0,0,0,0,0c0-0.4-0.3-0.7-0.7-0.7c-0.4,0-0.7,0.3-0.7,0.7
			C138.1,44.3,138.4,44.6,138.7,44.6z"/>
		<path class="st0" d="M62.9,37.3v-0.3c0-1.8-0.8-2.9-2.3-2.9c-1.4,0-2.4,1.2-2.4,2.9c-0.2,1.5,0.9,2.8,2.3,3c0.1,0,0.3,0,0.4,0
			c0.7,0,1.3-0.2,1.8-0.5l-0.3-0.7C62,39,61.5,39.2,61,39.2c-1,0-1.8-0.7-1.8-1.7v-0.2L62.9,37.3z M60.5,35L60.5,35
			c0.9,0,1.3,0.8,1.3,1.6h-2.6C59.1,35.8,59.7,35,60.5,35z"/>
		<path class="st0" d="M63.8,39.9h1.1v-4.1c0.4-0.4,1-0.7,1.6-0.8c0.8,0,1,0.6,1,1.4v3.4h1.1v-3.8c0-1.5-0.8-2-1.7-2
			c-0.7,0-1.4,0.3-2,0.8l-0.1-0.7h-0.9L63.8,39.9L63.8,39.9z"/>
		<path class="st0" d="M71.6,40c0.5,0,1-0.2,1.5-0.4l-0.3-0.7c-0.3,0.2-0.6,0.3-0.9,0.3c-0.4,0-0.6-0.2-0.6-0.7v-3.3h1.4l0.3-0.8
			h-1.7v-1.6L70.2,33v1.3h-1v0.8h1v3.5c-0.1,0.7,0.4,1.3,1.1,1.4C71.4,40,71.5,40,71.6,40L71.6,40z"/>
		<path class="st0" d="M73.8,39.9h1.1v-4.1c0.3-0.4,0.8-0.7,1.3-0.7c0.2,0,0.4,0.1,0.5,0.1l0.4-0.9c-0.2-0.1-0.4-0.2-0.7-0.2
			c-0.6,0-1.2,0.3-1.6,0.8l-0.1-0.7h-0.9L73.8,39.9L73.8,39.9z"/>
		<path class="st0" d="M89.3,40c1.2,0.1,2.3-0.5,2.8-1.6c0.2-0.4,0.3-0.9,0.2-1.4v-5h-1.1v4.9c0,0.4,0,0.8-0.2,1.1
			c-0.5,1-1.8,1.4-2.8,0.8c-0.4-0.2-0.6-0.5-0.8-0.8c-0.1-0.3-0.2-0.7-0.2-1.1V32h-1.1v5c0,0.5,0.1,0.9,0.2,1.3
			C86.9,39.5,88.1,40.2,89.3,40L89.3,40z"/>
		<path class="st0" d="M93.8,39.9h1.1v-4.1c0.4-0.4,1-0.7,1.6-0.8c0.8,0,1,0.6,1,1.4v3.4h1.1v-3.8c0-1.5-0.8-2-1.7-2
			c-0.7,0-1.4,0.3-2,0.8l-0.1-0.7h-0.9L93.8,39.9L93.8,39.9z"/>
		<rect x="99.8" y="34.3" class="st0" width="1.1" height="5.6"/>
		<path class="st0" d="M100.3,33.1c0.4,0,0.7-0.3,0.7-0.7c0,0,0,0,0,0c0-0.4-0.3-0.7-0.6-0.7c0,0,0,0,0,0c-0.4,0-0.7,0.3-0.7,0.7
			C99.6,32.8,99.9,33.1,100.3,33.1z"/>
		<polygon class="st0" points="103.8,39.9 104.6,39.9 106.8,34.3 105.7,34.3 104.2,38.6 104.2,38.6 102.6,34.3 101.5,34.3 
			103.8,39.9 		"/>
		<path class="st0" d="M111.7,37.3v-0.3c0-1.8-0.8-2.9-2.3-2.9c-1.4,0-2.4,1.2-2.4,2.9c-0.2,1.5,0.9,2.8,2.3,3c0.1,0,0.3,0,0.4,0
			c0.6,0,1.3-0.2,1.8-0.5l-0.3-0.7c-0.4,0.2-0.9,0.4-1.4,0.4c-1,0-1.8-0.7-1.8-1.7c0-0.1,0-0.1,0-0.2H111.7z M109.4,35
			C109.4,35,109.4,35,109.4,35c0.9,0,1.3,0.8,1.3,1.6h-2.6C108,35.8,108.6,35,109.4,35z"/>
		<path class="st0" d="M112.7,39.9h1v-4.1c0.3-0.4,0.8-0.7,1.3-0.7c0.2,0,0.4,0.1,0.5,0.1l0.4-0.9c-0.2-0.1-0.4-0.2-0.7-0.2
			c-0.6,0-1.2,0.3-1.6,0.8l-0.1-0.7h-0.9L112.7,39.9L112.7,39.9z"/>
		<path class="st0" d="M115.8,39.5l0.3-0.8c0.4,0.3,0.9,0.4,1.5,0.4c0.6,0,1.1-0.2,1.1-0.8c0-1.1-2.7-0.8-2.7-2.6
			c0-0.9,0.7-1.6,2-1.6c0.5,0,1,0.1,1.5,0.3v0.9c-0.4-0.2-0.9-0.3-1.4-0.3c-0.5,0-1,0.2-1,0.7c0,1.1,2.7,0.7,2.7,2.7
			c0,1.2-1,1.7-2.1,1.7C117,40,116.4,39.9,115.8,39.5L115.8,39.5z"/>
		<rect x="120.8" y="34.3" class="st0" width="1.1" height="5.6"/>
		<path class="st0" d="M121.3,33.1c0.4,0,0.7-0.3,0.7-0.7c0,0,0,0,0,0c0-0.4-0.3-0.7-0.7-0.7c-0.4,0-0.7,0.3-0.7,0.7
			C120.7,32.8,121,33.1,121.3,33.1z"/>
		<path class="st0" d="M125,40c0.5,0,1-0.2,1.5-0.4l-0.3-0.7c-0.3,0.2-0.6,0.3-0.9,0.3c-0.4,0-0.6-0.2-0.6-0.7v-3.3h1.4l0.3-0.8
			h-1.7v-1.6l-1.1,0.3v1.3h-1v0.8h1v3.5c-0.1,0.7,0.4,1.3,1.1,1.4C124.9,40,125,40,125,40L125,40z"/>
		<path class="st0" d="M131.4,38.1v-2c0.1-1-0.6-1.9-1.6-2c-0.1,0-0.3,0-0.4,0c-0.7,0-1.4,0.2-2,0.6l0.4,0.7c0.5-0.3,1-0.5,1.5-0.5
			c0.6-0.1,1.1,0.3,1.2,0.9c0,0.1,0,0.2,0,0.2v0.3l-1,0c-0.5,0-1,0.1-1.4,0.3c-0.6,0.3-1,0.9-1,1.5c0,0.9,0.7,1.7,1.6,1.8h0.2
			c0.6,0,1.2-0.3,1.7-0.7l0.2,0.6h0.9C131.4,39.3,131.4,38.7,131.4,38.1z M130.4,38.5c-0.3,0.4-0.8,0.6-1.4,0.7c-0.5,0-1-0.3-1-0.8
			c0,0,0-0.1,0-0.1c0-0.3,0.1-0.6,0.4-0.8c0.3-0.1,0.6-0.2,1-0.2l0.9,0V38.5z"/>
		<polygon class="st0" points="128.7,33.6 129.5,33.6 130.6,31.8 129.4,31.8 128.7,33.6 		"/>
		<path class="st0" d="M132.6,39.9h1.1v-4.1c0.3-0.4,0.8-0.7,1.3-0.7c0.2,0,0.4,0.1,0.5,0.1l0.4-0.9c-0.2-0.1-0.4-0.2-0.7-0.2
			c-0.6,0-1.2,0.3-1.6,0.8l-0.1-0.7h-0.9V39.9z"/>
		<rect x="136.5" y="34.3" class="st0" width="1.1" height="5.6"/>
		<path class="st0" d="M137,33.1c0.4,0,0.7-0.3,0.7-0.7c0,0,0,0,0,0c0-0.4-0.3-0.7-0.7-0.7c-0.4,0-0.7,0.3-0.7,0.7
			C136.3,32.8,136.6,33.1,137,33.1z"/>
		<path id="Caminho_4090_00000005969296822184982690000013806233519481582490_" class="st2" d="M77.1,37.1c0.1-1.5,0.7-2.8,2.6-2.8
			c2.1,0,2.8,1.8,2.6,3.3C82.2,39,81,40,79.7,40c-1.5,0-2.7-1.2-2.6-2.7C77.1,37.2,77.1,37.1,77.1,37.1z M81.4,37.1
			c0-1.2-0.6-2.1-1.6-2.1s-1.6,0.9-1.6,2.1s0.6,2,1.6,2S81.4,38.3,81.4,37.1L81.4,37.1z"/>
		<path id="Caminho_4090_00000016040011183335147540000000525729885077144452_" class="st2" d="M138.6,37.1c0.1-1.5,0.7-2.8,2.6-2.8
			c2.1,0,2.8,1.8,2.6,3.3c-0.1,1.4-1.3,2.4-2.6,2.4c-1.5,0-2.7-1.2-2.6-2.7C138.6,37.2,138.6,37.1,138.6,37.1z M142.9,37.1
			c0-1.2-0.6-2.1-1.6-2.1s-1.6,0.9-1.6,2.1s0.6,2,1.6,2S142.9,38.3,142.9,37.1L142.9,37.1z"/>
		<path id="Caminho_4090_00000080184847858587054510000008373016764143632544_" class="st2" d="M140.3,48.7c0.1-1.5,0.7-2.8,2.6-2.8
			c2.1,0,2.8,1.8,2.6,3.3c-0.1,1.4-1.3,2.4-2.6,2.4c-1.5,0-2.7-1.2-2.6-2.7C140.3,48.8,140.3,48.7,140.3,48.7z M144.6,48.7
			c0-1.2-0.6-2.1-1.6-2.1s-1.6,0.9-1.6,2.1s0.6,2,1.6,2S144.6,49.9,144.6,48.7L144.6,48.7z"/>
		<path id="Caminho_4090_00000023240613131186484200000010246784406120718237_" class="st2" d="M91,48.7c0.1-1.5,0.7-2.8,2.6-2.8
			c2.1,0,2.8,1.8,2.6,3.3c-0.1,1.4-1.3,2.4-2.6,2.4c-1.5,0-2.7-1.2-2.6-2.7C91,48.8,91,48.7,91,48.7z M95.3,48.7
			c0-1.2-0.6-2.1-1.6-2.1s-1.6,0.9-1.6,2.1s0.6,2,1.6,2S95.3,49.9,95.3,48.7L95.3,48.7z"/>
		<path id="Caminho_4090_00000045604122268497075900000002862071478316547718_" class="st2" d="M118.5,48.7c0.1-1.5,0.7-2.8,2.6-2.8
			c2.1,0,2.8,1.8,2.6,3.3c-0.1,1.4-1.3,2.4-2.6,2.4c-1.5,0-2.7-1.2-2.6-2.7C118.5,48.8,118.5,48.7,118.5,48.7z M122.8,48.7
			c0-1.2-0.6-2.1-1.6-2.1s-1.6,0.9-1.6,2.1s0.6,2,1.6,2S122.8,49.9,122.8,48.7L122.8,48.7z"/>
	</g>
</g>
</svg>
