<?xml version="1.0" encoding="utf-8"?>
<!-- Generator: Adobe Illustrator 25.4.1, SVG Export Plug-In . SVG Version: 6.00 Build 0)  -->
<svg version="1.1" id="Camada_1" xmlns="http://www.w3.org/2000/svg" xmlns:xlink="http://www.w3.org/1999/xlink" x="0px" y="0px"
	 width="135.6px" height="60px" viewBox="0 0 135.6 60" style="enable-background:new 0 0 135.6 60;" xml:space="preserve">
<style type="text/css">
	.st0{fill-rule:evenodd;clip-rule:evenodd;fill:#FFE700;}
	.st1{fill:#FFFFFF;}
	.st2{fill-rule:evenodd;clip-rule:evenodd;fill:#FFFFFF;}
</style>
<g>
	<g id="Grupo_2761">
		<path id="Caminho_3610" class="st0" d="M24.9,7.6c0.1-0.1,0.5-0.7,0.9-0.7s0.5,0.4,0.5,0.7c0.1,0.5,0.2,1.3,0.4,2.6
			c0.3,1.8,0.7,4,0.7,4c-1.9,0.4-6.6,1.5-8.1,1.9C20.9,13.3,23.9,8.8,24.9,7.6L24.9,7.6z M38.1,15.8c2.9-0.1,6-0.2,6.2-0.2
			c0.7,0,1.3,0.1,1.5,0.4c0.1,0.4-0.2,0.9-0.7,1.3c-0.1,0.1-1.9,1.2-3.7,2.5c-2.9,1.9-6.5,4.3-6.5,4.3c0,0.1-1.4-6.3-1.6-7.9
			C33.2,16.2,35.6,15.9,38.1,15.8L38.1,15.8z M19.3,34.5c0,0-6.8-5.6-7.1-5.9c0,0,4.3-8,5.6-10.1c0.8-0.2,7.1-1.4,10.1-1.7
			c0,0,0.9,4.9,2.2,10.5C30,27.2,21.3,33,19.3,34.5L19.3,34.5z M33.3,39.7L33.3,39.7c-1.1-3.6-2.1-7.6-2.1-7.6l-8.1,5.7
			c0,0,9.4,8.2,11.2,9.8c0.2,0.2,0.4,0.3,0.6,0.4c0.3,0.1,0.6,0.1,0.7-0.1c0.1-0.3,0.1-0.7,0-1C35.1,45.5,34.1,42.5,33.3,39.7
			L33.3,39.7z M7.7,42.8L7.7,42.8c2.3-1.6,9.5-6.7,9.5-6.7C15.9,35,11,30.8,11,30.8s-4,8.5-5,10.6c-0.2,0.5-0.4,1-0.4,1.5
			c0.1,0.3,0.3,0.9,1.3,0.4C7.1,43.2,7.6,42.9,7.7,42.8L7.7,42.8z M5.4,23.3L5.4,23.3c1,0.8,5.1,4,5.1,4c0.6-1,0.6-1.1,2-3.5
			c0.6-1.1,1.5-2.5,2.8-4.7c-3.2,0.8-6.4,1.7-9.5,2.8C5.6,22,5.5,22,5.3,22.1C5.1,22.2,5,22.4,5,22.6C5,22.9,5.3,23.2,5.4,23.3
			L5.4,23.3z M41.6,47.1c-0.8-2.2-1.8-5-2.7-7.8C37.3,34,36,28.8,36,28.8c1-0.7,10.3-7,17-10.8c0.1-0.1,2.1-1.2,2.3-2.5
			c0-0.4,0-0.8-0.1-1.1c-0.3-1-1.2-1.9-3.6-2c-2.9-0.2-5.8-0.3-8.7-0.1c-3.4,0.1-6.8,0.4-10.1,1c0,0-1.1-6.9-1.5-9.7
			c-0.1-0.6-0.3-1.2-0.5-1.7c-0.3-0.6-0.9-0.9-1.6-1c-0.2,0-0.3,0-0.5,0h-0.1c-0.5,0-0.9,0.1-1.3,0.4c-0.5,0.4-0.8,0.9-1.2,1.4
			c-1.8,2.5-6.8,10-9.4,14.2c0,0-7.9,2.4-12.6,4.4c-1.4,0.6-1.5,1.3-1.6,1.7c0,0.3,0,1,1.1,1.9c1.4,1.2,5.8,4.8,5.8,4.8
			c-1.5,2.4-7.5,14.6-8.1,18c-0.3,1,0,2.1,0.6,2.9c0.5,0.6,1.3,1,2.1,1c1,0,2.4-1.1,3-1.5c4.7-3.4,14-10.5,14-10.5
			c3.5,3.1,10.8,9.9,14.7,13.5c0.5,0.4,1.9,1.8,3.3,1.8c1.8,0.1,3.4-1.2,3.7-3C42.6,50.1,42.3,48.5,41.6,47.1L41.6,47.1z"/>
	</g>
	<g id="Grupo_2765">
		<g id="Grupo_2763">
			<g id="Grupo_2762">
				<path id="Caminho_3611" class="st1" d="M123.3,51.6h-0.8v-0.4l0,0c0-0.1,0-0.2,0-0.3c0-0.1,0.1-0.2,0.1-0.3l0,0
					c0-0.1,0.1-0.2,0.2-0.2l0,0c0.1-0.1,0.1-0.1,0.2-0.2l0,0c0.1,0,0.2-0.1,0.3-0.1c0.1,0,0.2,0,0.3,0l0,0c0.1,0,0.2,0,0.3,0
					c0.1,0,0.2,0,0.3,0.1c0.1,0,0.2,0.1,0.2,0.1s0.2,0.1,0.2,0.1l0,0c0.1,0,0.1,0.1,0.2,0.1l0,0c0.1,0,0.1,0.1,0.2,0.1
					c0.1,0,0.1,0.1,0.2,0.1l0,0c0.1,0,0.1,0,0.2,0c0,0,0.1,0,0.1,0l0,0c0,0,0.1,0,0.1-0.1c0-0.1,0-0.1,0-0.2l0,0c0-0.1,0-0.1,0-0.2
					v-0.1h0.9v0.4l0,0c0,0.1,0,0.2,0,0.3c0,0.1-0.1,0.2-0.1,0.3c0,0.1-0.1,0.2-0.2,0.2l0,0c-0.1,0.1-0.1,0.1-0.2,0.2l0,0
					c-0.1,0-0.2,0.1-0.3,0.1c-0.1,0-0.2,0-0.3,0l0,0c-0.1,0-0.2,0-0.3,0l0,0c-0.1,0-0.2,0-0.3-0.1l0,0c-0.1,0-0.2-0.1-0.2-0.1l0,0
					c-0.1,0-0.2-0.1-0.2-0.1l0,0c-0.1,0-0.1-0.1-0.2-0.1s-0.1-0.1-0.2-0.1l0,0c-0.1,0-0.1-0.1-0.2-0.1l0,0c-0.1,0-0.1,0-0.2,0l0,0
					c0,0-0.1,0-0.1,0c0,0-0.1,0-0.1,0.1l0,0c0,0.1,0,0.1,0,0.2l0,0C123.4,51.4,123.4,51.5,123.3,51.6L123.3,51.6L123.3,51.6z"/>
				<path id="Caminho_3612" class="st1" d="M127,59.3h-1l0-0.1l-0.2-0.6c-0.1,0-0.1,0.1-0.2,0.1c-0.1,0.1-0.2,0.1-0.3,0.2l0,0
					c-0.1,0.1-0.2,0.1-0.3,0.2l0,0c-0.1,0.1-0.2,0.1-0.3,0.1l0,0c-0.1,0-0.2,0.1-0.4,0.1c-0.1,0-0.3,0-0.4,0l0,0
					c-0.2,0-0.4,0-0.6-0.1c-0.2,0-0.4-0.1-0.5-0.2c-0.2-0.1-0.3-0.2-0.4-0.3c-0.1-0.1-0.2-0.3-0.3-0.4c-0.1-0.2-0.2-0.3-0.2-0.5
					c0-0.2-0.1-0.4-0.1-0.6l0,0c0-0.1,0-0.3,0-0.4l0,0c0-0.1,0.1-0.3,0.1-0.4l0,0c0-0.1,0.1-0.2,0.2-0.3c0.1-0.1,0.1-0.2,0.2-0.3
					l0,0c0.1-0.1,0.2-0.2,0.3-0.2c0.1-0.1,0.2-0.1,0.3-0.2c0.1-0.1,0.2-0.1,0.4-0.1l0,0c0.1,0,0.3-0.1,0.4-0.1c0.1,0,0.3,0,0.4-0.1
					s0.3,0,0.5,0l1.2,0v-0.3l0,0c0-0.1,0-0.3,0-0.4c0-0.1-0.1-0.2-0.1-0.3l0,0c-0.1-0.1-0.1-0.2-0.2-0.3c-0.1-0.1-0.2-0.1-0.3-0.2
					l0,0c-0.1,0-0.2-0.1-0.3-0.1c-0.1,0-0.2,0-0.4,0l0,0c-0.1,0-0.2,0-0.4,0c-0.1,0-0.2,0-0.3,0.1c-0.1,0-0.2,0.1-0.3,0.1
					s-0.2,0.1-0.3,0.1l0,0c-0.1,0-0.2,0.1-0.2,0.1s-0.2,0.1-0.2,0.1l-0.1,0l0-0.1l-0.4-0.7l0-0.1l0.1,0c0.2-0.1,0.4-0.2,0.6-0.3
					c0.2-0.1,0.4-0.2,0.6-0.2l0,0c0.2-0.1,0.4-0.1,0.6-0.1c0.2,0,0.4,0,0.6,0l0,0c0.2,0,0.4,0,0.7,0.1c0.2,0,0.4,0.1,0.6,0.2l0,0
					c0.2,0.1,0.3,0.2,0.5,0.3c0.1,0.1,0.3,0.3,0.4,0.4c0.1,0.2,0.2,0.4,0.2,0.6c0.1,0.2,0.1,0.5,0.1,0.7l0,0V57c0,0.2,0,0.4,0,0.6
					s0,0.3,0,0.5s0,0.3,0,0.4s0,0.2,0,0.3s0,0.2,0,0.2l0,0c0,0.1,0,0.1,0,0.2l0,0.1L127,59.3z M125.8,57.6V56l-1.1,0l0,0
					c-0.1,0-0.3,0-0.4,0l0,0c-0.1,0-0.2,0-0.3,0c-0.1,0-0.2,0-0.3,0.1c-0.1,0-0.2,0.1-0.2,0.1l0,0c-0.1,0-0.2,0.1-0.2,0.2
					c-0.1,0.1-0.1,0.1-0.2,0.2c0,0.1-0.1,0.2-0.1,0.3c0,0.1,0,0.2,0,0.3c0,0.1,0,0.2,0,0.3l0,0c0,0.1,0.1,0.2,0.1,0.3l0,0
					c0,0.1,0.1,0.2,0.2,0.2l0,0c0.1,0.1,0.1,0.1,0.2,0.2l0,0c0.1,0,0.2,0.1,0.3,0.1l0,0c0.1,0,0.2,0,0.3,0l0,0c0.1,0,0.2,0,0.3,0
					l0,0c0.1,0,0.2,0,0.3-0.1l0,0c0.1,0,0.2-0.1,0.2-0.1c0.1,0,0.1-0.1,0.2-0.1l0,0c0.1,0,0.1-0.1,0.2-0.1c0.1,0,0.1-0.1,0.2-0.1
					l0,0c0.1,0,0.1-0.1,0.1-0.1l0,0C125.7,57.6,125.7,57.6,125.8,57.6L125.8,57.6z"/>
				<path id="Caminho_3613" class="st1" d="M120,51.3c-0.1,0-0.1,0-0.2,0l0,0c-0.1,0-0.1,0-0.2,0c-0.1,0-0.1,0-0.2-0.1l0,0
					c-0.1,0-0.1-0.1-0.2-0.1c0,0-0.1-0.1-0.1-0.2c0-0.1-0.1-0.1-0.1-0.2c0-0.1,0-0.1,0-0.2c0-0.1,0-0.1,0-0.2l0,0
					c0-0.1,0.1-0.2,0.2-0.3c0,0,0.1-0.1,0.1-0.1l0,0c0.1,0,0.1-0.1,0.2-0.1c0.1,0,0.1,0,0.2,0l0,0c0.1,0,0.2,0,0.3,0.1
					c0.1,0,0.2,0.1,0.2,0.2c0.1,0.1,0.1,0.2,0.2,0.2c0,0.1,0.1,0.2,0.1,0.3l0,0c0,0.1,0,0.1,0,0.2l0,0c0,0.1,0,0.1-0.1,0.2l0,0
					c-0.1,0.1-0.2,0.2-0.3,0.3C120.1,51.2,120.1,51.2,120,51.3z"/>
				<path id="Caminho_3614" class="st1" d="M120.3,59.3h-1.1v-6.7h1.2L120.3,59.3L120.3,59.3z"/>
				<path id="Caminho_3615" class="st1" d="M116.8,59.4c-0.2,0-0.3,0-0.5,0l0,0c-0.2,0-0.4,0-0.7-0.1c-0.2-0.1-0.4-0.2-0.5-0.3l0,0
					c-0.1-0.1-0.2-0.3-0.3-0.5c-0.1-0.2-0.1-0.4-0.1-0.7l0,0v-4.2h-1.1v-1h1.1v-1.4l0.1,0l1-0.3l0.1,0v1.8h2l0,0.1l-0.3,0.8l0,0.1
					H116v4.1c0,0.1,0,0.2,0,0.3c0,0.1,0.1,0.2,0.1,0.2c0,0.1,0.1,0.1,0.2,0.1c0.1,0,0.2,0,0.3,0l0,0c0.1,0,0.2,0,0.3,0
					c0.1,0,0.2,0,0.3-0.1l0,0c0.1,0,0.2-0.1,0.2-0.1l0,0c0.1,0,0.1-0.1,0.2-0.1l0.1-0.1l0,0.1l0.4,0.7l0,0.1l-0.1,0
					c-0.1,0.1-0.2,0.1-0.3,0.2c-0.1,0.1-0.3,0.1-0.4,0.2C117.2,59.3,117,59.3,116.8,59.4z"/>
				<path id="Caminho_3616" class="st1" d="M108.8,59c-0.1,0-0.2-0.1-0.2-0.1l-0.1,0l0-0.1l0.3-0.8l0-0.1l0.1,0.1
					c0.1,0,0.1,0.1,0.2,0.1s0.1,0.1,0.2,0.1c0.1,0,0.2,0.1,0.2,0.1l0,0c0.1,0,0.2,0.1,0.3,0.1l0,0c0.1,0,0.2,0,0.3,0.1
					c0.1,0,0.2,0,0.3,0l0,0c0.1,0,0.2,0,0.4,0c0.1,0,0.2,0,0.3-0.1c0.1,0,0.2-0.1,0.3-0.1l0,0c0.1-0.1,0.1-0.1,0.2-0.2l0,0
					c0.1-0.1,0.1-0.2,0.1-0.2l0,0c0-0.1,0-0.2,0-0.3l0,0c0-0.1,0-0.2,0-0.2l0,0c0-0.1-0.1-0.1-0.1-0.2c-0.1-0.1-0.1-0.1-0.2-0.2
					c-0.1-0.1-0.1-0.1-0.2-0.2c-0.1,0-0.2-0.1-0.3-0.1s-0.2-0.1-0.3-0.1l0,0c-0.1,0-0.2-0.1-0.3-0.1s-0.2-0.1-0.3-0.2
					c-0.1-0.1-0.2-0.1-0.3-0.2c-0.1-0.1-0.2-0.1-0.3-0.2l0,0c-0.1-0.1-0.2-0.2-0.3-0.3c-0.1-0.1-0.1-0.2-0.2-0.3
					c-0.1-0.1-0.1-0.2-0.1-0.4c0-0.1,0-0.3,0-0.4l0,0c0-0.2,0-0.3,0.1-0.5c0-0.2,0.1-0.3,0.2-0.5c0.1-0.1,0.2-0.3,0.3-0.4
					c0.1-0.1,0.3-0.2,0.5-0.3c0.2-0.1,0.4-0.1,0.6-0.2c0.2,0,0.5-0.1,0.7-0.1l0,0c0.2,0,0.3,0,0.5,0c0.1,0,0.3,0,0.4,0.1
					c0.1,0,0.3,0.1,0.4,0.1c0.1,0,0.2,0.1,0.4,0.1l0.1,0v1.1l-0.1-0.1c-0.1,0-0.2-0.1-0.3-0.1s-0.2-0.1-0.4-0.1l0,0
					c-0.1,0-0.3-0.1-0.4-0.1c-0.1,0-0.3,0-0.4,0l0,0c-0.1,0-0.2,0-0.2,0c-0.1,0-0.1,0-0.2,0l0,0c-0.1,0-0.1,0-0.2,0.1l0,0
					c-0.1,0-0.1,0-0.2,0.1c-0.1,0-0.1,0.1-0.1,0.1c0,0-0.1,0.1-0.1,0.1c0,0.1-0.1,0.1-0.1,0.2c0,0.1,0,0.1,0,0.2l0,0
					c0,0.1,0,0.2,0,0.3l0,0c0,0.1,0.1,0.1,0.1,0.2l0,0c0.1,0.1,0.1,0.1,0.2,0.2l0,0c0.1,0.1,0.2,0.1,0.2,0.2c0.1,0,0.2,0.1,0.3,0.1
					l0,0c0.1,0,0.2,0.1,0.3,0.1l0,0c0.1,0,0.2,0.1,0.3,0.1s0.2,0.1,0.3,0.2l0,0c0.1,0.1,0.2,0.1,0.3,0.2c0.1,0.1,0.2,0.1,0.3,0.2
					l0,0c0.1,0.1,0.2,0.2,0.3,0.3c0.1,0.1,0.1,0.2,0.2,0.3c0.1,0.1,0.1,0.2,0.1,0.4c0,0.1,0,0.3,0,0.4l0,0c0,0.2,0,0.3,0,0.5
					c0,0.1-0.1,0.3-0.1,0.4c-0.1,0.1-0.1,0.2-0.2,0.3c-0.1,0.1-0.2,0.2-0.3,0.3c-0.1,0.1-0.2,0.2-0.4,0.2l0,0
					c-0.1,0.1-0.3,0.1-0.4,0.2c-0.3,0.1-0.6,0.1-1,0.1l0,0c-0.1,0-0.3,0-0.4,0c-0.1,0-0.3,0-0.4-0.1c-0.1,0-0.2-0.1-0.4-0.1
					c-0.1,0-0.2-0.1-0.3-0.1l0,0C109,59.1,108.9,59,108.8,59z"/>
				<path id="Caminho_3617" class="st1" d="M107.6,59.3h-1l0-0.1l-0.2-0.6c-0.1,0-0.1,0.1-0.2,0.1c-0.1,0.1-0.2,0.1-0.3,0.2l0,0
					c-0.1,0.1-0.2,0.1-0.3,0.2l0,0c-0.1,0.1-0.2,0.1-0.3,0.1l0,0c-0.1,0-0.2,0.1-0.4,0.1c-0.1,0-0.3,0-0.4,0l0,0
					c-0.2,0-0.4,0-0.6-0.1c-0.2,0-0.4-0.1-0.5-0.2c-0.3-0.2-0.6-0.4-0.8-0.7c-0.1-0.2-0.2-0.3-0.2-0.5c0-0.2-0.1-0.4-0.1-0.6l0,0
					c0-0.1,0-0.3,0-0.4l0,0c0-0.1,0.1-0.3,0.1-0.4l0,0c0-0.1,0.1-0.2,0.2-0.3c0.1-0.1,0.1-0.2,0.2-0.3l0,0c0.1-0.1,0.2-0.2,0.3-0.2
					c0.1-0.1,0.2-0.1,0.3-0.2c0.1-0.1,0.2-0.1,0.4-0.1l0,0c0.1,0,0.3-0.1,0.4-0.1c0.1,0,0.3,0,0.4-0.1s0.3,0,0.5,0l1.2,0v-0.3l0,0
					c0-0.1,0-0.3,0-0.4c0-0.1-0.1-0.2-0.1-0.3l0,0c-0.1-0.1-0.1-0.2-0.2-0.3c-0.1-0.1-0.2-0.1-0.3-0.2l0,0c-0.1,0-0.2-0.1-0.3-0.1
					c-0.1,0-0.2,0-0.4,0l0,0c-0.1,0-0.2,0-0.4,0c-0.1,0-0.2,0-0.3,0.1c-0.1,0-0.2,0.1-0.3,0.1s-0.2,0.1-0.3,0.1l0,0
					c-0.1,0-0.2,0.1-0.2,0.1s-0.2,0.1-0.2,0.1l-0.1,0l0-0.1l-0.4-0.7l0-0.1l0.1,0c0.2-0.1,0.4-0.2,0.6-0.3c0.2-0.1,0.4-0.2,0.6-0.2
					l0,0c0.2-0.1,0.4-0.1,0.6-0.1c0.2,0,0.4,0,0.6,0l0,0c0.2,0,0.4,0,0.7,0.1c0.2,0,0.4,0.1,0.6,0.2l0,0c0.2,0.1,0.3,0.2,0.5,0.3
					c0.1,0.1,0.3,0.3,0.4,0.4c0.1,0.2,0.2,0.4,0.2,0.6c0.1,0.2,0.1,0.5,0.1,0.7l0,0V57c0,0.2,0,0.4,0,0.6s0,0.3,0,0.5s0,0.3,0,0.4
					s0,0.2,0,0.3s0,0.2,0,0.2l0,0c0,0.1,0,0.1,0,0.2l0,0.1L107.6,59.3z M106.3,57.6V56l-1,0l0,0c-0.1,0-0.3,0-0.4,0l0,0
					c-0.1,0-0.2,0-0.3,0c-0.1,0-0.2,0-0.3,0.1c-0.1,0-0.2,0.1-0.2,0.1l0,0c-0.1,0-0.2,0.1-0.2,0.2c-0.1,0.1-0.1,0.1-0.2,0.2
					c0,0.1-0.1,0.2-0.1,0.3c0,0.1,0,0.2,0,0.3c0,0.1,0,0.2,0,0.3l0,0c0,0.1,0.1,0.2,0.1,0.3l0,0c0,0.1,0.1,0.2,0.2,0.2l0,0
					c0.1,0.1,0.1,0.1,0.2,0.2l0,0c0.1,0,0.2,0.1,0.3,0.1l0,0c0.1,0,0.2,0,0.3,0l0,0c0.1,0,0.2,0,0.3,0l0,0c0.1,0,0.2,0,0.3-0.1l0,0
					c0.1,0,0.2-0.1,0.2-0.1c0.1,0,0.1-0.1,0.2-0.1l0,0c0.1,0,0.1-0.1,0.2-0.1c0.1,0,0.1-0.1,0.2-0.1l0,0c0.1,0,0.1-0.1,0.1-0.1l0,0
					C106.3,57.6,106.3,57.6,106.3,57.6L106.3,57.6z"/>
				<path id="Caminho_3618" class="st1" d="M99.3,59.2L99.3,59.2c-0.5,0.2-1,0.3-1.5,0.2l0,0c-0.2,0-0.4,0-0.6,0
					c-0.2,0-0.3,0-0.5-0.1c-0.1,0-0.3-0.1-0.4-0.1c-0.1,0-0.2-0.1-0.3-0.2l0,0v-9.6h1.2v3.3l0.1,0c0.1,0,0.1,0,0.2-0.1l0,0
					c0.1,0,0.2,0,0.2-0.1s0.2,0,0.3,0s0.2,0,0.3,0s0.2,0,0.3,0c0.2,0,0.4,0,0.6,0.1c0.2,0,0.4,0.1,0.6,0.2l0,0
					c0.2,0.1,0.3,0.2,0.5,0.3c0.2,0.1,0.3,0.2,0.4,0.4l0,0c0.1,0.1,0.3,0.3,0.4,0.5c0.1,0.2,0.2,0.4,0.3,0.6l0,0
					c0.1,0.2,0.1,0.4,0.2,0.7l0,0c0,0.3,0.1,0.5,0.1,0.8l0,0c0,0.3,0,0.5-0.1,0.8c0,0.2-0.1,0.5-0.2,0.7c-0.1,0.2-0.2,0.4-0.3,0.6
					c-0.3,0.4-0.6,0.7-1,0.9C99.7,59,99.5,59.1,99.3,59.2L99.3,59.2z M97.8,58.4c0.1,0,0.1,0,0.2,0l0,0c0.2,0,0.4,0,0.6-0.1
					c0.2-0.1,0.4-0.1,0.6-0.2l0,0c0.2-0.1,0.3-0.2,0.5-0.4c0.1-0.2,0.3-0.3,0.3-0.5c0.1-0.2,0.2-0.4,0.2-0.6
					c0.1-0.2,0.1-0.5,0.1-0.7l0,0c0-0.2,0-0.4-0.1-0.7c0-0.2-0.1-0.4-0.2-0.6l0,0c-0.1-0.2-0.2-0.3-0.3-0.5l0,0
					c-0.1-0.1-0.2-0.2-0.4-0.3l0,0c-0.3-0.2-0.7-0.3-1.1-0.3c-0.1,0-0.2,0-0.3,0l0,0c-0.1,0-0.2,0-0.3,0l0,0c-0.1,0-0.2,0-0.2,0.1
					l0,0c-0.1,0-0.1,0-0.2,0.1l0,0l-0.2,0.1l0,0l-0.1,0v4.4c0.1,0,0.1,0,0.2,0.1l0,0c0.1,0,0.2,0,0.2,0.1l0,0
					C97.6,58.3,97.7,58.3,97.8,58.4L97.8,58.4z"/>
				<path id="Caminho_3619" class="st1" d="M92.7,59.4c-0.1,0-0.3,0-0.4,0l0,0c-0.2,0-0.5,0-0.7-0.1c-0.2,0-0.4-0.1-0.6-0.2l0,0
					c-0.2-0.1-0.4-0.2-0.5-0.3c-0.2-0.1-0.3-0.3-0.4-0.4c-0.1-0.2-0.2-0.3-0.3-0.5l0,0c-0.1-0.2-0.2-0.4-0.2-0.6
					c-0.1-0.2-0.1-0.4-0.1-0.7c0-0.2,0-0.5,0-0.7l0,0c0-0.2,0-0.5,0-0.7c0-0.2,0.1-0.4,0.1-0.7c0.1-0.2,0.1-0.4,0.2-0.6
					c0.1-0.2,0.2-0.3,0.3-0.5l0,0c0.1-0.1,0.3-0.3,0.4-0.4c0.1-0.1,0.3-0.2,0.5-0.3c0.2-0.1,0.3-0.1,0.5-0.2l0,0
					c0.2,0,0.4-0.1,0.6-0.1l0,0c0.3,0,0.5,0,0.8,0.1c0.2,0.1,0.5,0.2,0.7,0.3l0,0c0.2,0.1,0.4,0.3,0.5,0.5c0.2,0.2,0.3,0.4,0.4,0.7
					c0.1,0.3,0.2,0.5,0.2,0.8l0,0c0.1,0.3,0.1,0.6,0.1,1l0,0v0.3h-4.2c0,0.1,0,0.3,0,0.4c0,0.1,0.1,0.3,0.1,0.4
					c0.1,0.3,0.2,0.5,0.4,0.7l0,0c0.2,0.2,0.4,0.4,0.6,0.5l0,0c0.1,0.1,0.3,0.1,0.4,0.1l0,0c0.2,0,0.3,0,0.5,0l0,0
					c0.1,0,0.3,0,0.4,0c0.1,0,0.3-0.1,0.4-0.1l0,0c0.1,0,0.3-0.1,0.4-0.1c0.1-0.1,0.2-0.1,0.3-0.2l0.1,0l0,0.1l0.3,0.7l0,0.1l-0.1,0
					c-0.1,0.1-0.2,0.1-0.3,0.2l0,0c-0.1,0.1-0.2,0.1-0.3,0.1l0,0c-0.1,0-0.2,0.1-0.4,0.1s-0.2,0.1-0.4,0.1l0,0
					C92.9,59.4,92.8,59.4,92.7,59.4L92.7,59.4z M90.4,54.9c0,0.1,0,0.2,0,0.3h3c0-0.1,0-0.2,0-0.3c0-0.1,0-0.2-0.1-0.4l0,0
					c0-0.1-0.1-0.2-0.1-0.3l0,0c0-0.1-0.1-0.2-0.2-0.3l0,0c-0.1-0.1-0.1-0.2-0.2-0.2l0,0c-0.1-0.1-0.2-0.1-0.2-0.2l0,0
					c-0.1-0.1-0.2-0.1-0.3-0.1c-0.1,0-0.2,0-0.3,0l0,0c-0.1,0-0.2,0-0.3,0l0,0c-0.1,0-0.2,0.1-0.3,0.1c-0.1,0-0.2,0.1-0.3,0.2
					c-0.1,0.1-0.2,0.1-0.2,0.2c-0.1,0.1-0.1,0.2-0.2,0.3l0,0c-0.1,0.1-0.1,0.2-0.1,0.3l0,0C90.5,54.7,90.4,54.8,90.4,54.9L90.4,54.9
					z"/>
				<path id="Caminho_3620" class="st1" d="M82.9,58.9c-0.1-0.1-0.2-0.1-0.3-0.2l-0.1,0l0-0.1l0.4-0.8l0-0.1l0.1,0.1
					c0.1,0,0.1,0.1,0.2,0.1s0.2,0.1,0.3,0.1l0,0c0.1,0,0.2,0.1,0.3,0.1c0.1,0,0.2,0.1,0.3,0.1c0.1,0,0.2,0.1,0.4,0.1
					c0.1,0,0.3,0,0.4,0l0,0c0.1,0,0.2,0,0.4,0c0.1,0,0.2,0,0.3-0.1c0.1,0,0.2-0.1,0.3-0.1l0,0c0.1,0,0.2-0.1,0.3-0.1l0,0
					c0.1-0.1,0.2-0.1,0.2-0.2c0.1-0.1,0.1-0.2,0.2-0.2l0,0c0-0.1,0.1-0.2,0.1-0.3c0-0.1,0-0.2,0-0.4l0,0c0-0.1,0-0.2,0-0.4
					c0-0.1-0.1-0.2-0.1-0.3l0,0c-0.1-0.1-0.1-0.2-0.2-0.3l0,0c-0.1-0.1-0.2-0.2-0.2-0.2l0,0c-0.1-0.1-0.2-0.2-0.3-0.2
					c-0.1-0.1-0.2-0.1-0.3-0.2l-0.4-0.2c-0.1-0.1-0.2-0.1-0.4-0.2l0,0c-0.1-0.1-0.3-0.1-0.4-0.2s-0.2-0.1-0.4-0.2
					c-0.1-0.1-0.2-0.2-0.3-0.2c-0.1-0.1-0.2-0.2-0.3-0.3c-0.1-0.1-0.2-0.2-0.3-0.3c-0.1-0.1-0.1-0.2-0.2-0.4
					c-0.1-0.1-0.1-0.3-0.1-0.4c0-0.2,0-0.3,0-0.5l0,0c0-0.2,0-0.3,0-0.5l0,0c0-0.2,0.1-0.3,0.1-0.4l0,0c0.1-0.1,0.1-0.3,0.2-0.4
					c0.1-0.1,0.2-0.2,0.3-0.4c0.1-0.1,0.3-0.2,0.4-0.3c0.1-0.1,0.3-0.2,0.5-0.2c0.2-0.1,0.4-0.1,0.5-0.1c0.2,0,0.4,0,0.6,0l0,0
					c0.1,0,0.3,0,0.4,0l0,0c0.1,0,0.3,0,0.4,0s0.2,0,0.4,0.1s0.2,0.1,0.3,0.1s0.2,0.1,0.3,0.1c0.1,0,0.2,0.1,0.2,0.1l0,0v1.1
					l-0.1-0.1c-0.1-0.1-0.3-0.1-0.4-0.2l0,0c-0.2-0.1-0.3-0.1-0.5-0.2l0,0c-0.2,0-0.3-0.1-0.5-0.1l0,0c-0.2,0-0.3,0-0.5,0
					c-0.1,0-0.2,0-0.3,0c-0.1,0-0.2,0-0.3,0.1c-0.1,0-0.2,0.1-0.3,0.1c-0.1,0-0.2,0.1-0.2,0.1l0,0c-0.1,0-0.1,0.1-0.2,0.2
					c-0.1,0.1-0.1,0.1-0.1,0.2c0,0.1-0.1,0.2-0.1,0.3c0,0.1,0,0.2,0,0.3l0,0c0,0.1,0,0.2,0,0.3l0,0c0,0.1,0.1,0.2,0.1,0.3l0,0
					c0.1,0.1,0.1,0.2,0.2,0.3c0.1,0.1,0.2,0.2,0.2,0.2c0.1,0.1,0.2,0.1,0.3,0.2s0.2,0.1,0.3,0.2l0,0c0.1,0.1,0.2,0.1,0.4,0.2
					s0.3,0.1,0.4,0.2s0.3,0.1,0.4,0.2s0.2,0.2,0.4,0.2c0.1,0.1,0.2,0.2,0.3,0.3l0,0c0.1,0.1,0.2,0.2,0.3,0.3l0,0
					c0.1,0.1,0.2,0.2,0.3,0.3c0.1,0.1,0.1,0.3,0.2,0.4l0,0c0.1,0.1,0.1,0.3,0.1,0.4c0,0.2,0,0.3,0,0.5l0,0c0,0.2,0,0.5-0.1,0.7
					c-0.1,0.2-0.2,0.4-0.3,0.6c-0.1,0.2-0.3,0.4-0.5,0.5c-0.2,0.1-0.4,0.3-0.6,0.4c-0.2,0.1-0.5,0.2-0.7,0.2l0,0
					c-0.3,0.1-0.6,0.1-0.8,0.1l0,0c-0.2,0-0.3,0-0.5,0c-0.2,0-0.3,0-0.5-0.1c-0.1,0-0.3-0.1-0.4-0.1c-0.1,0-0.3-0.1-0.4-0.1
					C83.2,59,83,58.9,82.9,58.9z"/>
				<path id="Caminho_3621" class="st1" d="M76.3,59.3c-0.2,0-0.4,0.1-0.7,0.1l0,0c-0.2,0-0.4,0-0.7-0.1c-0.2,0-0.4-0.1-0.6-0.2l0,0
					c-0.2-0.1-0.4-0.2-0.5-0.3c-0.2-0.1-0.3-0.3-0.4-0.4c-0.1-0.2-0.3-0.3-0.4-0.5c-0.1-0.2-0.2-0.4-0.3-0.6
					c-0.1-0.2-0.1-0.4-0.2-0.7c0-0.2-0.1-0.5-0.1-0.7l0,0c0-0.2,0-0.5,0.1-0.7c0-0.2,0.1-0.4,0.2-0.7c0.1-0.2,0.2-0.4,0.3-0.6
					c0.1-0.2,0.2-0.4,0.4-0.5c0.1-0.2,0.3-0.3,0.4-0.4c0.2-0.1,0.3-0.2,0.5-0.3l0,0c0.2-0.1,0.4-0.2,0.6-0.2c0.2,0,0.5-0.1,0.7-0.1
					l0,0c0.2,0,0.4,0,0.7,0.1c0.2,0,0.4,0.1,0.6,0.2l0,0c0.4,0.2,0.7,0.4,1,0.7c0.1,0.2,0.3,0.3,0.4,0.5c0.1,0.2,0.2,0.4,0.3,0.6
					l0,0c0.1,0.2,0.1,0.4,0.2,0.7c0,0.2,0.1,0.5,0.1,0.7l0,0c0,0.2,0,0.5-0.1,0.7c0,0.2-0.1,0.4-0.2,0.7c-0.1,0.2-0.2,0.4-0.3,0.6
					l0,0c-0.1,0.2-0.2,0.4-0.4,0.5c-0.1,0.2-0.3,0.3-0.4,0.4c-0.2,0.1-0.3,0.2-0.5,0.3l0,0C76.7,59.2,76.5,59.3,76.3,59.3L76.3,59.3
					z M75.1,58.3c0.2,0.1,0.4,0.1,0.5,0.1c0.2,0,0.4,0,0.5-0.1c0.2-0.1,0.3-0.1,0.5-0.2c0.1-0.1,0.3-0.2,0.4-0.4l0,0
					c0.1-0.2,0.2-0.3,0.3-0.5c0.1-0.2,0.1-0.4,0.2-0.6c0-0.2,0.1-0.5,0.1-0.7l0,0c0-0.2,0-0.5-0.1-0.7c0-0.2-0.1-0.4-0.2-0.6
					c-0.1-0.2-0.2-0.3-0.3-0.5c-0.1-0.1-0.2-0.3-0.4-0.4c-0.1-0.1-0.3-0.2-0.5-0.2c-0.2-0.1-0.3-0.1-0.5-0.1l0,0
					c-0.2,0-0.4,0-0.5,0.1c-0.2,0-0.3,0.1-0.5,0.2c-0.1,0.1-0.3,0.2-0.4,0.4c-0.1,0.2-0.2,0.3-0.3,0.5l0,0c-0.1,0.2-0.1,0.4-0.2,0.6
					c0,0.2-0.1,0.5-0.1,0.7l0,0c0,0.2,0,0.5,0.1,0.7c0,0.2,0.1,0.4,0.2,0.6c0.1,0.2,0.2,0.3,0.3,0.5c0.1,0.1,0.2,0.3,0.4,0.4
					C74.8,58.2,74.9,58.2,75.1,58.3L75.1,58.3z"/>
				<path id="Caminho_3622" class="st1" d="M67.7,51.6h-0.8v-0.4l0,0c0-0.1,0-0.2,0-0.3c0-0.1,0.1-0.2,0.1-0.3l0,0
					c0-0.1,0.1-0.2,0.2-0.2l0,0c0.1-0.1,0.1-0.1,0.2-0.2l0,0c0.1,0,0.2-0.1,0.3-0.1c0.1,0,0.2,0,0.3,0l0,0c0.1,0,0.2,0,0.3,0
					c0.1,0,0.2,0,0.3,0.1c0.1,0,0.2,0.1,0.2,0.1s0.2,0.1,0.2,0.1l0,0c0.1,0,0.1,0.1,0.2,0.1l0,0c0.1,0,0.1,0.1,0.2,0.1
					c0.1,0,0.1,0.1,0.2,0.1l0,0c0.1,0,0.1,0,0.2,0c0,0,0.1,0,0.1,0l0,0c0,0,0.1,0,0.1-0.1c0-0.1,0-0.1,0-0.2l0,0c0-0.1,0-0.1,0-0.2
					v-0.1h0.9v0.4l0,0c0,0.1,0,0.2,0,0.3c0,0.1-0.1,0.2-0.1,0.3c0,0.1-0.1,0.2-0.2,0.2l0,0c-0.1,0.1-0.1,0.1-0.2,0.2l0,0
					c-0.1,0-0.2,0.1-0.3,0.1c-0.1,0-0.2,0-0.3,0l0,0c-0.1,0-0.2,0-0.3,0l0,0c-0.1,0-0.2,0-0.3-0.1l0,0c-0.1,0-0.2-0.1-0.2-0.1l0,0
					c-0.1,0-0.2-0.1-0.2-0.1l0,0c-0.1,0-0.1-0.1-0.2-0.1s-0.1-0.1-0.2-0.1l0,0c-0.1,0-0.1-0.1-0.2-0.1l0,0c-0.1,0-0.1,0-0.2,0l0,0
					c0,0-0.1,0-0.1,0c0,0-0.1,0-0.1,0.1l0,0c0,0.1,0,0.1,0,0.2l0,0C67.8,51.4,67.8,51.5,67.7,51.6L67.7,51.6L67.7,51.6z"/>
				<path id="Caminho_3623" class="st1" d="M71.4,59.3h-1l0-0.1l-0.2-0.6c-0.1,0-0.1,0.1-0.2,0.1c-0.1,0.1-0.2,0.1-0.3,0.2l0,0
					c-0.1,0.1-0.2,0.1-0.3,0.2l0,0c-0.1,0.1-0.2,0.1-0.3,0.1l0,0c-0.1,0-0.2,0.1-0.4,0.1c-0.1,0-0.3,0-0.4,0l0,0
					c-0.2,0-0.4,0-0.6-0.1c-0.2,0-0.4-0.1-0.5-0.2c-0.3-0.2-0.6-0.4-0.8-0.7c-0.1-0.2-0.2-0.3-0.2-0.5c0-0.2-0.1-0.4-0.1-0.6l0,0
					c0-0.1,0-0.3,0-0.4l0,0c0-0.1,0.1-0.3,0.1-0.4l0,0c0-0.1,0.1-0.2,0.2-0.3c0.1-0.1,0.1-0.2,0.2-0.3l0,0c0.1-0.1,0.2-0.2,0.3-0.2
					c0.1-0.1,0.2-0.1,0.3-0.2c0.1-0.1,0.2-0.1,0.4-0.1l0,0c0.1,0,0.3-0.1,0.4-0.1c0.1,0,0.3,0,0.4-0.1s0.3,0,0.5,0l1.2,0v-0.3l0,0
					c0-0.1,0-0.3,0-0.4c0-0.1-0.1-0.2-0.1-0.3l0,0c-0.1-0.1-0.1-0.2-0.2-0.3c-0.1-0.1-0.2-0.1-0.3-0.2l0,0c-0.1,0-0.2-0.1-0.3-0.1
					c-0.1,0-0.2,0-0.4,0l0,0c-0.1,0-0.2,0-0.4,0c-0.1,0-0.2,0-0.3,0.1c-0.1,0-0.2,0.1-0.3,0.1s-0.2,0.1-0.3,0.1l0,0
					c-0.1,0-0.2,0.1-0.2,0.1s-0.2,0.1-0.2,0.1L67,54l0-0.1l-0.4-0.7l0-0.1l0.1,0c0.2-0.1,0.4-0.2,0.6-0.3c0.2-0.1,0.4-0.2,0.6-0.2
					l0,0c0.2-0.1,0.4-0.1,0.6-0.1c0.2,0,0.4,0,0.6,0l0,0c0.2,0,0.4,0,0.7,0.1c0.2,0,0.4,0.1,0.6,0.2l0,0c0.2,0.1,0.3,0.2,0.5,0.3
					c0.1,0.1,0.3,0.3,0.4,0.4c0.1,0.2,0.2,0.4,0.2,0.6c0.1,0.2,0.1,0.5,0.1,0.7l0,0V57c0,0.2,0,0.4,0,0.6s0,0.3,0,0.5s0,0.3,0,0.4
					s0,0.2,0,0.3s0,0.2,0,0.2l0,0c0,0.1,0,0.1,0,0.2l0,0.1L71.4,59.3z M70.1,57.6V56l-1.1,0l0,0c-0.1,0-0.3,0-0.4,0l0,0
					c-0.1,0-0.2,0-0.3,0c-0.1,0-0.2,0-0.3,0.1c-0.1,0-0.2,0.1-0.2,0.1l0,0c-0.1,0-0.2,0.1-0.2,0.2c-0.1,0.1-0.1,0.1-0.2,0.2
					c0,0.1-0.1,0.2-0.1,0.3c0,0.1,0,0.2,0,0.3c0,0.1,0,0.2,0,0.3l0,0c0,0.1,0.1,0.2,0.1,0.3l0,0c0,0.1,0.1,0.2,0.2,0.2l0,0
					c0.1,0.1,0.1,0.1,0.2,0.2l0,0c0.1,0,0.2,0.1,0.3,0.1l0,0c0.1,0,0.2,0,0.3,0l0,0c0.1,0,0.2,0,0.3,0l0,0c0.1,0,0.2,0,0.3-0.1l0,0
					c0.1,0,0.2-0.1,0.2-0.1c0.1,0,0.1-0.1,0.2-0.1l0,0c0.1,0,0.1-0.1,0.2-0.1s0.1-0.1,0.2-0.1l0,0c0.1,0,0.1-0.1,0.1-0.1l0,0
					C70.1,57.6,70.1,57.6,70.1,57.6L70.1,57.6z"/>
				<path id="Caminho_3624" class="st1" d="M60,58.9c-0.1-0.1-0.2-0.1-0.3-0.2l-0.1,0l0-0.1l0.4-0.8l0-0.1l0.1,0.1
					c0.1,0,0.2,0.1,0.2,0.1s0.2,0.1,0.3,0.1l0,0c0.1,0,0.2,0.1,0.3,0.1c0.1,0,0.2,0.1,0.3,0.1c0.1,0,0.2,0.1,0.4,0.1
					c0.1,0,0.3,0,0.4,0l0,0c0.1,0,0.2,0,0.4,0c0.1,0,0.2,0,0.3-0.1c0.1,0,0.2-0.1,0.3-0.1l0,0c0.1,0,0.2-0.1,0.3-0.1l0,0
					c0.2-0.1,0.3-0.3,0.4-0.4l0,0c0-0.1,0.1-0.2,0.1-0.3c0-0.1,0-0.2,0-0.4l0,0c0-0.1,0-0.2,0-0.4c0-0.1-0.1-0.2-0.1-0.3l0,0
					c-0.1-0.1-0.1-0.2-0.2-0.3l0,0c-0.1-0.1-0.2-0.2-0.2-0.2l0,0c-0.1-0.1-0.2-0.2-0.3-0.2s-0.2-0.1-0.3-0.2l-0.4-0.2l-0.4-0.2l0,0
					c-0.1-0.1-0.3-0.1-0.4-0.2s-0.2-0.1-0.4-0.2c-0.1-0.1-0.2-0.2-0.3-0.2c-0.1-0.1-0.2-0.2-0.3-0.3c-0.1-0.1-0.2-0.2-0.3-0.3
					c-0.1-0.1-0.1-0.2-0.2-0.4c-0.1-0.1-0.1-0.3-0.1-0.4c0-0.2,0-0.3,0-0.5l0,0c0-0.2,0-0.3,0-0.5l0,0c0-0.2,0.1-0.3,0.1-0.4l0,0
					c0.1-0.1,0.1-0.3,0.2-0.4c0.1-0.1,0.2-0.2,0.3-0.4c0.1-0.1,0.3-0.2,0.4-0.3c0.1-0.1,0.3-0.2,0.5-0.2c0.2-0.1,0.4-0.1,0.5-0.1
					c0.2,0,0.4,0,0.6,0l0,0c0.1,0,0.3,0,0.4,0l0,0c0.1,0,0.3,0,0.4,0s0.2,0,0.4,0.1s0.2,0.1,0.3,0.1c0.1,0,0.2,0.1,0.3,0.1
					c0.1,0,0.2,0.1,0.2,0.1l0,0v1.1l-0.1-0.1c-0.1-0.1-0.3-0.1-0.4-0.2l0,0c-0.2-0.1-0.3-0.1-0.5-0.2l0,0c-0.2,0-0.3-0.1-0.5-0.1
					l0,0c-0.2,0-0.3,0-0.5,0c-0.1,0-0.2,0-0.3,0c-0.1,0-0.2,0-0.3,0.1c-0.1,0-0.2,0.1-0.3,0.1c-0.1,0-0.2,0.1-0.2,0.1l0,0
					c-0.1,0-0.1,0.1-0.2,0.2c-0.1,0.1-0.1,0.1-0.1,0.2c0,0.1-0.1,0.2-0.1,0.3c0,0.1,0,0.2,0,0.3l0,0c0,0.1,0,0.2,0,0.3l0,0
					c0,0.1,0.1,0.2,0.1,0.3l0,0c0.1,0.1,0.1,0.2,0.2,0.3c0.1,0.1,0.2,0.2,0.2,0.2c0.1,0.1,0.2,0.1,0.3,0.2s0.2,0.1,0.3,0.2l0,0
					c0.1,0.1,0.2,0.1,0.4,0.2s0.3,0.1,0.4,0.2s0.3,0.1,0.4,0.2s0.2,0.2,0.4,0.2c0.1,0.1,0.2,0.2,0.3,0.3l0,0
					c0.1,0.1,0.2,0.2,0.3,0.3l0,0c0.1,0.1,0.2,0.2,0.3,0.3c0.1,0.1,0.1,0.3,0.2,0.4l0,0c0.1,0.1,0.1,0.3,0.1,0.4c0,0.2,0,0.3,0,0.5
					l0,0c0,0.2,0,0.5-0.1,0.7c-0.1,0.2-0.2,0.4-0.3,0.6c-0.1,0.2-0.3,0.4-0.5,0.5c-0.2,0.1-0.4,0.3-0.6,0.4
					c-0.2,0.1-0.5,0.2-0.7,0.2l0,0c-0.3,0.1-0.6,0.1-0.8,0.1l0,0c-0.2,0-0.3,0-0.5,0c-0.2,0-0.3,0-0.5-0.1c-0.1,0-0.3-0.1-0.4-0.1
					c-0.1,0-0.3-0.1-0.4-0.1C60.2,59,60.1,58.9,60,58.9z"/>
				<path id="Caminho_3625" class="st1" d="M131.9,59.3c-0.2,0-0.4,0.1-0.7,0.1l0,0c-0.2,0-0.4,0-0.7-0.1c-0.2,0-0.4-0.1-0.6-0.2
					l0,0c-0.2-0.1-0.4-0.2-0.5-0.3c-0.2-0.1-0.3-0.3-0.4-0.4c-0.1-0.2-0.3-0.3-0.4-0.5c-0.1-0.2-0.2-0.4-0.3-0.6
					c-0.1-0.2-0.1-0.4-0.2-0.7c0-0.2-0.1-0.5-0.1-0.7l0,0c0-0.2,0-0.5,0.1-0.7c0-0.2,0.1-0.4,0.2-0.7c0.1-0.2,0.2-0.4,0.3-0.6
					c0.1-0.2,0.2-0.4,0.4-0.5c0.1-0.2,0.3-0.3,0.4-0.4c0.2-0.1,0.3-0.2,0.5-0.3l0,0c0.2-0.1,0.4-0.2,0.6-0.2c0.2,0,0.4-0.1,0.7-0.1
					l0,0c0.2,0,0.4,0,0.7,0.1c0.2,0,0.4,0.1,0.6,0.2l0,0c0.4,0.2,0.7,0.4,1,0.7c0.1,0.2,0.3,0.3,0.4,0.5c0.1,0.2,0.2,0.4,0.3,0.6
					l0,0c0.1,0.2,0.1,0.4,0.2,0.7c0,0.2,0.1,0.5,0.1,0.7l0,0c0,0.2,0,0.5-0.1,0.7c0,0.2-0.1,0.4-0.2,0.7c-0.1,0.2-0.2,0.4-0.3,0.6
					l0,0c-0.1,0.2-0.2,0.4-0.4,0.5c-0.1,0.2-0.3,0.3-0.4,0.4c-0.2,0.1-0.3,0.2-0.5,0.3l0,0C132.3,59.2,132.1,59.3,131.9,59.3
					L131.9,59.3z M130.7,58.3c0.3,0.1,0.7,0.1,1.1,0c0.2-0.1,0.3-0.1,0.5-0.2c0.1-0.1,0.3-0.2,0.4-0.4l0,0c0.1-0.2,0.2-0.3,0.3-0.5
					c0.1-0.2,0.1-0.4,0.2-0.6c0-0.2,0.1-0.5,0.1-0.7l0,0c0-0.2,0-0.5-0.1-0.7c0-0.2-0.1-0.4-0.2-0.6c-0.1-0.2-0.2-0.3-0.3-0.5
					c-0.1-0.1-0.2-0.3-0.4-0.4c-0.1-0.1-0.3-0.2-0.5-0.2c-0.2-0.1-0.3-0.1-0.5-0.1l0,0c-0.2,0-0.4,0-0.5,0.1c-0.2,0-0.3,0.1-0.5,0.2
					c-0.1,0.1-0.3,0.2-0.4,0.4c-0.1,0.2-0.2,0.3-0.3,0.5l0,0c-0.1,0.2-0.1,0.4-0.2,0.6c0,0.2-0.1,0.5-0.1,0.7l0,0
					c0,0.2,0,0.5,0.1,0.7c0,0.2,0.1,0.4,0.2,0.6c0.1,0.2,0.2,0.3,0.3,0.5c0.1,0.1,0.2,0.3,0.4,0.4C130.4,58.2,130.6,58.2,130.7,58.3
					L130.7,58.3z"/>
			</g>
			<path id="Caminho_3626" class="st1" d="M111.3,45.8c-0.1,0-0.3,0-0.4,0l0,0c-0.2,0-0.5,0-0.7-0.1c-0.2,0-0.4-0.1-0.6-0.2l0,0
				c-0.2-0.1-0.4-0.2-0.5-0.3c-0.2-0.1-0.3-0.3-0.4-0.4c-0.1-0.2-0.2-0.3-0.3-0.5l0,0c-0.1-0.2-0.2-0.4-0.2-0.6
				c-0.1-0.2-0.1-0.4-0.1-0.7c0-0.2,0-0.5,0-0.7l0,0c0-0.2,0-0.5,0.1-0.7c0-0.2,0.1-0.4,0.1-0.7c0.1-0.2,0.1-0.4,0.2-0.6
				c0.1-0.2,0.2-0.3,0.3-0.5l0,0c0.1-0.1,0.3-0.3,0.4-0.4c0.1-0.1,0.3-0.2,0.5-0.3c0.2-0.1,0.3-0.1,0.5-0.2l0,0
				c0.2,0,0.4-0.1,0.6-0.1l0,0c0.3,0,0.5,0,0.8,0.1c0.2,0.1,0.5,0.2,0.7,0.3l0,0c0.2,0.1,0.4,0.3,0.5,0.5c0.2,0.2,0.3,0.4,0.4,0.7
				c0.1,0.3,0.2,0.5,0.2,0.8c0.1,0.3,0.1,0.6,0.1,1l0,0v0.3H109c0,0.1,0,0.3,0,0.4c0,0.1,0.1,0.3,0.1,0.4c0.1,0.3,0.2,0.5,0.4,0.7
				l0,0c0.1,0.1,0.2,0.2,0.3,0.3c0.1,0.1,0.2,0.2,0.4,0.2c0.1,0.1,0.3,0.1,0.4,0.1l0,0c0.2,0,0.3,0,0.5,0l0,0c0.1,0,0.3,0,0.4,0
				c0.1,0,0.3-0.1,0.4-0.1l0,0c0.3-0.1,0.5-0.2,0.7-0.3l0.1,0l0,0.1l0.3,0.7l0,0.1l-0.1,0c-0.1,0.1-0.2,0.1-0.3,0.2l0,0
				c-0.1,0.1-0.2,0.1-0.3,0.1l0,0c-0.1,0-0.2,0.1-0.4,0.1c-0.1,0-0.2,0.1-0.4,0.1l0,0C111.6,45.8,111.4,45.8,111.3,45.8L111.3,45.8z
				 M109.1,41.4c0,0.1,0,0.2,0,0.3h3c0-0.1,0-0.2,0-0.3c0-0.1,0-0.2-0.1-0.4c0-0.1-0.1-0.2-0.1-0.3l0,0c0-0.1-0.1-0.2-0.2-0.3l0,0
				c-0.1-0.1-0.1-0.2-0.2-0.2l0,0c-0.1-0.1-0.2-0.1-0.2-0.2l0,0c-0.1-0.1-0.2-0.1-0.3-0.1c-0.1,0-0.2,0-0.3,0l0,0
				c-0.1,0-0.2,0-0.3,0l0,0c-0.1,0-0.2,0.1-0.3,0.1c-0.2,0.1-0.3,0.2-0.5,0.4c-0.1,0.1-0.1,0.2-0.2,0.3c-0.1,0.1-0.1,0.2-0.1,0.3
				l0,0C109.1,41.1,109.1,41.3,109.1,41.4L109.1,41.4z"/>
			<path id="Caminho_3627" class="st1" d="M104.7,45.8c-0.1,0-0.3,0-0.4,0c-0.2,0-0.5,0-0.7-0.1c-0.2,0-0.4-0.1-0.7-0.2
				c-0.2-0.1-0.4-0.2-0.6-0.3c-0.2-0.1-0.4-0.2-0.5-0.4c-0.2-0.1-0.3-0.3-0.4-0.5c-0.1-0.2-0.2-0.4-0.3-0.6
				c-0.1-0.2-0.2-0.5-0.2-0.7c0-0.3-0.1-0.5-0.1-0.8l0,0c0-0.3,0-0.5,0.1-0.8c0-0.2,0.1-0.5,0.2-0.7c0.1-0.2,0.2-0.4,0.3-0.6
				c0.1-0.2,0.3-0.4,0.4-0.5l0,0c0.2-0.2,0.3-0.3,0.5-0.4c0.2-0.1,0.4-0.2,0.6-0.3l0,0c0.2-0.1,0.4-0.1,0.6-0.2
				c0.2,0,0.5-0.1,0.7-0.1l0,0c0.1,0,0.2,0,0.3,0s0.2,0,0.3,0l0,0c0.1,0,0.2,0,0.3,0c0.1,0,0.1,0,0.2,0v-3.2h1.2v9.6l0,0
				c-0.1,0-0.2,0.1-0.3,0.1s-0.2,0.1-0.3,0.1s-0.2,0.1-0.3,0.1s-0.2,0-0.4,0.1S104.9,45.8,104.7,45.8L104.7,45.8z M103.7,44.7
				c0.2,0.1,0.4,0.1,0.7,0.1l0,0c0.1,0,0.2,0,0.3,0s0.2,0,0.3,0s0.2,0,0.2-0.1c0.1,0,0.1,0,0.2,0v-4.6l-0.1,0c-0.1,0-0.1,0-0.1,0
				s-0.1,0-0.1,0s-0.1,0-0.2,0s-0.1,0-0.2,0s-0.1,0-0.2,0c-0.3,0-0.6,0.1-0.9,0.2c-0.1,0.1-0.3,0.1-0.4,0.2
				c-0.1,0.1-0.2,0.2-0.3,0.3c-0.1,0.1-0.2,0.2-0.3,0.4c-0.1,0.1-0.2,0.3-0.2,0.4l0,0c-0.1,0.2-0.1,0.3-0.1,0.5c0,0.2,0,0.4,0,0.6
				l0,0c0,0.2,0,0.5,0.1,0.7c0,0.2,0.1,0.4,0.2,0.6c0.1,0.2,0.2,0.3,0.3,0.5c0.1,0.1,0.3,0.3,0.5,0.4l0,0
				C103.3,44.6,103.5,44.7,103.7,44.7z"/>
			<path id="Caminho_3628" class="st1" d="M99.7,45.7h-1l0-0.1l-0.2-0.6c-0.1,0-0.1,0.1-0.2,0.1c-0.1,0.1-0.2,0.1-0.3,0.2l0,0
				c-0.1,0.1-0.2,0.1-0.3,0.2l0,0c-0.1,0.1-0.2,0.1-0.3,0.1l0,0c-0.1,0-0.2,0.1-0.4,0.1c-0.1,0-0.3,0-0.4,0l0,0
				c-0.2,0-0.4,0-0.6-0.1c-0.2,0-0.4-0.1-0.5-0.2c-0.2-0.1-0.3-0.2-0.4-0.3c-0.1-0.1-0.2-0.3-0.3-0.4l0,0c-0.1-0.2-0.2-0.3-0.2-0.5
				c0-0.2-0.1-0.4-0.1-0.6l0,0c0-0.1,0-0.3,0-0.4l0,0c0-0.1,0.1-0.3,0.1-0.4l0,0c0-0.1,0.1-0.2,0.2-0.3c0.1-0.1,0.1-0.2,0.2-0.3l0,0
				c0.1-0.1,0.2-0.2,0.3-0.2c0.1-0.1,0.2-0.1,0.3-0.2l0,0c0.1-0.1,0.2-0.1,0.4-0.1l0,0c0.1,0,0.3-0.1,0.4-0.1c0.1,0,0.3,0,0.4-0.1
				s0.3,0,0.5,0l1.2,0v-0.3l0,0c0-0.1,0-0.3,0-0.4c0-0.1-0.1-0.2-0.1-0.3l0,0c-0.1-0.1-0.1-0.2-0.2-0.3c-0.1-0.1-0.2-0.1-0.3-0.2
				l0,0c-0.1,0-0.2-0.1-0.3-0.1c-0.1,0-0.2,0-0.4,0l0,0c-0.1,0-0.2,0-0.4,0c-0.1,0-0.2,0-0.3,0.1c-0.1,0-0.2,0.1-0.3,0.1
				s-0.2,0.1-0.3,0.1l0,0c-0.1,0-0.2,0.1-0.2,0.1s-0.2,0.1-0.2,0.1l-0.1,0l0-0.1l-0.4-0.7l0-0.1l0.1,0c0.2-0.1,0.4-0.2,0.6-0.3
				c0.2-0.1,0.4-0.2,0.6-0.2l0,0c0.2-0.1,0.4-0.1,0.6-0.1c0.2,0,0.4,0,0.6,0l0,0c0.2,0,0.4,0,0.7,0.1c0.2,0,0.4,0.1,0.6,0.2l0,0
				c0.2,0.1,0.3,0.2,0.5,0.3c0.1,0.1,0.3,0.3,0.4,0.4c0.1,0.2,0.2,0.4,0.2,0.6c0.1,0.2,0.1,0.5,0.1,0.7l0,0v2.2c0,0.2,0,0.4,0,0.6
				s0,0.3,0,0.5s0,0.3,0,0.4s0,0.2,0,0.3s0,0.2,0,0.2l0,0c0,0.1,0,0.1,0,0.2l0,0.1L99.7,45.7z M98.4,44v-1.5l-1.1,0l0,0
				c-0.1,0-0.3,0-0.4,0l0,0c-0.1,0-0.2,0-0.3,0c-0.1,0-0.2,0-0.3,0.1c-0.1,0-0.2,0.1-0.2,0.1l0,0c-0.1,0-0.2,0.1-0.2,0.2
				c-0.1,0.1-0.1,0.1-0.2,0.2c0,0.1-0.1,0.2-0.1,0.3c0,0.1,0,0.2,0,0.3c0,0.1,0,0.2,0,0.3l0,0c0,0.1,0.1,0.2,0.1,0.3l0,0
				c0,0.1,0.1,0.2,0.2,0.2l0,0c0.1,0.1,0.1,0.1,0.2,0.2l0,0c0.1,0,0.2,0.1,0.3,0.1c0.1,0,0.2,0,0.3,0l0,0c0.1,0,0.2,0,0.3,0l0,0
				c0.1,0,0.2,0,0.3-0.1l0,0c0.1,0,0.2-0.1,0.2-0.1l0,0c0.1,0,0.1-0.1,0.2-0.1l0,0c0.1,0,0.1-0.1,0.2-0.1c0.1,0,0.1-0.1,0.2-0.1l0,0
				c0.1,0,0.1-0.1,0.1-0.1l0,0C98.4,44.1,98.4,44.1,98.4,44L98.4,44z"/>
			<path id="Caminho_3629" class="st1" d="M91.4,45.8c-0.1,0-0.3,0-0.4,0c-0.2,0-0.5,0-0.7-0.1c-0.2,0-0.4-0.1-0.7-0.2
				c-0.2-0.1-0.4-0.2-0.6-0.3c-0.2-0.1-0.4-0.2-0.5-0.4c-0.2-0.1-0.3-0.3-0.4-0.5c-0.1-0.2-0.2-0.4-0.3-0.6
				c-0.1-0.2-0.2-0.5-0.2-0.7c0-0.3-0.1-0.5-0.1-0.8l0,0c0-0.3,0-0.5,0.1-0.8c0-0.2,0.1-0.5,0.2-0.7c0.1-0.2,0.2-0.4,0.3-0.6
				c0.1-0.2,0.3-0.4,0.4-0.5l0,0c0.2-0.2,0.3-0.3,0.5-0.4c0.2-0.1,0.4-0.2,0.6-0.3l0,0c0.2-0.1,0.4-0.1,0.6-0.2
				c0.2,0,0.5-0.1,0.7-0.1l0,0c0.1,0,0.2,0,0.3,0s0.2,0,0.3,0l0,0c0.1,0,0.2,0,0.3,0c0.1,0,0.1,0,0.2,0v-3.2h1.2v9.6l0,0
				c-0.1,0-0.2,0.1-0.3,0.1c-0.1,0-0.2,0.1-0.3,0.1s-0.2,0.1-0.3,0.1s-0.2,0-0.4,0.1S91.6,45.8,91.4,45.8L91.4,45.8z M90.4,44.7
				c0.2,0.1,0.4,0.1,0.7,0.1l0,0c0.1,0,0.2,0,0.3,0s0.2,0,0.3,0s0.2,0,0.3-0.1c0.1,0,0.1,0,0.2,0v-4.6l-0.1,0c0,0-0.1,0-0.1,0
				s-0.1,0-0.1,0s-0.1,0-0.2,0s-0.1,0-0.2,0s-0.1,0-0.2,0c-0.3,0-0.6,0.1-0.9,0.2c-0.1,0.1-0.3,0.1-0.4,0.2
				c-0.1,0.1-0.2,0.2-0.3,0.3c-0.1,0.1-0.2,0.2-0.3,0.4c-0.1,0.1-0.2,0.3-0.2,0.4l0,0c-0.1,0.2-0.1,0.3-0.1,0.5c0,0.2,0,0.4,0,0.6
				l0,0c0,0.2,0,0.5,0.1,0.7c0,0.2,0.1,0.4,0.2,0.6c0.1,0.2,0.2,0.3,0.3,0.5c0.1,0.1,0.3,0.3,0.5,0.4l0,0
				C90,44.6,90.2,44.7,90.4,44.7z"/>
			<path id="Caminho_3630" class="st1" d="M84.9,45.4c-0.2-0.3-0.3-0.6-0.3-1v-8.6h1.2v8.3c0,0.1,0,0.2,0,0.2c0,0.1,0,0.1,0,0.2
				c0,0,0,0.1,0.1,0.1l0,0c0,0,0,0,0.1,0.1c0,0,0.1,0,0.1,0l0,0c0,0,0.1,0,0.1,0l0,0c0,0,0.1,0,0.1,0l0,0c0,0,0.1,0,0.1,0l0,0
				c0,0,0.1,0,0.1,0l0,0c0,0,0.1,0,0.1,0l0.1,0l0,0.1l0.2,0.8l0,0.1l-0.1,0c-0.1,0-0.1,0.1-0.2,0.1l0,0c-0.1,0-0.2,0-0.2,0.1l0,0
				c-0.1,0-0.2,0-0.2,0l0,0c-0.1,0-0.2,0-0.2,0l0,0c-0.2,0-0.4,0-0.6-0.1C85.2,45.7,85,45.6,84.9,45.4z"/>
			<path id="Caminho_3631" class="st1" d="M80,45.8c-0.1,0-0.3,0-0.4,0l0,0c-0.1,0-0.2,0-0.2,0c-0.1,0-0.2,0-0.3,0l0,0
				c-0.1,0-0.2,0-0.3-0.1c-0.1,0-0.2-0.1-0.3-0.1c-0.1-0.1-0.2-0.1-0.2-0.2c-0.1-0.1-0.2-0.1-0.2-0.2l0,0C78,45.1,78,45,77.9,44.9
				c-0.1-0.1-0.1-0.2-0.1-0.3l0,0c0-0.1,0-0.1,0-0.2l0,0c0-0.1,0-0.1,0-0.2l0,0c0-0.1,0-0.1,0-0.2l0,0c0-0.1,0-0.1,0-0.2l0,0
				c0-0.1,0-0.1,0-0.2s0-0.2,0-0.2V39h1.2v4.1l0,0c0,0.1,0,0.2,0,0.3s0,0.2,0,0.3s0,0.1,0,0.2c0,0.1,0,0.1,0.1,0.2l0,0
				c0,0.1,0.1,0.2,0.1,0.3c0.1,0.1,0.1,0.1,0.2,0.2c0.1,0.1,0.2,0.1,0.3,0.1c0.1,0,0.2,0,0.3,0c0.1,0,0.2,0,0.4,0
				c0.1,0,0.2-0.1,0.3-0.1l0,0c0.1,0,0.2-0.1,0.3-0.1c0.1-0.1,0.2-0.1,0.3-0.2l0,0c0.1-0.1,0.2-0.1,0.2-0.2c0.1-0.1,0.1-0.1,0.2-0.2
				V39h1.2v4.4c0,0.2,0,0.4,0,0.6c0,0.2,0,0.3,0,0.5s0,0.3,0,0.4s0,0.2,0,0.3s0,0.2,0,0.2s0,0.1,0,0.2l0,0.1h-1.1l0-0.1L81.7,45
				c-0.1,0.1-0.1,0.1-0.2,0.2l0,0c-0.1,0.1-0.2,0.2-0.3,0.2l0,0c-0.1,0.1-0.2,0.1-0.4,0.2c-0.1,0.1-0.3,0.1-0.4,0.1
				C80.3,45.8,80.2,45.8,80,45.8z"/>
			<path id="Caminho_3632" class="st1" d="M75,45.8c-0.1,0-0.3,0-0.4,0l0,0c-0.2,0-0.5,0-0.7-0.1c-0.2,0-0.4-0.1-0.6-0.2
				c-0.2-0.1-0.4-0.2-0.5-0.3c-0.2-0.1-0.3-0.3-0.5-0.4c-0.1-0.2-0.3-0.3-0.4-0.5l0,0c-0.1-0.2-0.2-0.4-0.3-0.6
				c-0.1-0.2-0.1-0.4-0.2-0.6c0-0.2-0.1-0.5-0.1-0.7l0,0c0-0.2,0-0.5,0.1-0.7c0-0.2,0.1-0.4,0.2-0.7l0,0c0.1-0.2,0.2-0.4,0.3-0.6
				c0.1-0.2,0.2-0.4,0.4-0.5c0.1-0.2,0.3-0.3,0.5-0.4l0,0c0.2-0.1,0.4-0.2,0.6-0.3c0.2-0.1,0.4-0.2,0.7-0.2c0.2,0,0.5-0.1,0.7-0.1
				l0,0c0.2,0,0.3,0,0.5,0c0.2,0,0.3,0,0.4,0.1c0.1,0,0.3,0.1,0.4,0.1c0.1,0,0.2,0.1,0.3,0.2l0,0v1.1l-0.1-0.1
				c-0.1-0.1-0.2-0.1-0.3-0.2c-0.1-0.1-0.2-0.1-0.4-0.1c-0.1,0-0.3-0.1-0.4-0.1c-0.1,0-0.3,0-0.4,0l0,0c-0.2,0-0.3,0-0.5,0
				c-0.1,0-0.3,0.1-0.4,0.1l0,0c-0.1,0.1-0.3,0.1-0.4,0.2l0,0c-0.1,0.1-0.2,0.2-0.3,0.3l0,0C73.1,40.7,73,40.8,73,41l0,0
				c-0.1,0.1-0.1,0.3-0.2,0.4l0,0c-0.1,0.2-0.1,0.3-0.1,0.5c0,0.2,0,0.3,0,0.5l0,0c0,0.2,0,0.5,0.1,0.7c0,0.2,0.1,0.4,0.2,0.6
				c0.1,0.2,0.2,0.3,0.3,0.5c0.1,0.1,0.3,0.3,0.4,0.3l0,0c0.2,0.1,0.3,0.2,0.5,0.2c0.2,0.1,0.4,0.1,0.6,0.1l0,0c0.1,0,0.2,0,0.3,0
				c0.1,0,0.2,0,0.3,0c0.1,0,0.2,0,0.3-0.1c0.1,0,0.2-0.1,0.2-0.1l0,0c0.1,0,0.2-0.1,0.2-0.1l0,0c0.1,0,0.1-0.1,0.2-0.1l0.1,0l0,0.1
				l0.3,0.7l0,0.1l-0.1,0c-0.1,0.1-0.2,0.1-0.3,0.2l0,0c-0.1,0-0.2,0.1-0.3,0.1c-0.1,0-0.2,0.1-0.3,0.1c-0.1,0-0.2,0.1-0.4,0.1l0,0
				C75.2,45.8,75.1,45.8,75,45.8z"/>
			<path id="Caminho_3633" class="st1" d="M70.2,45.7h-1l0-0.1l-0.2-0.6c-0.1,0-0.1,0.1-0.2,0.1c-0.1,0.1-0.2,0.1-0.3,0.2l0,0
				c-0.1,0.1-0.2,0.1-0.3,0.2l0,0c-0.1,0.1-0.2,0.1-0.3,0.1l0,0c-0.1,0-0.2,0.1-0.4,0.1c-0.1,0-0.3,0-0.4,0l0,0
				c-0.2,0-0.4,0-0.6-0.1c-0.2,0-0.4-0.1-0.5-0.2c-0.2-0.1-0.3-0.2-0.4-0.3c-0.1-0.1-0.2-0.3-0.3-0.4l0,0c-0.1-0.2-0.2-0.3-0.2-0.5
				c0-0.2-0.1-0.4-0.1-0.6l0,0c0-0.1,0-0.3,0-0.4l0,0c0-0.1,0.1-0.3,0.1-0.4l0,0c0-0.1,0.1-0.2,0.2-0.3c0.1-0.1,0.1-0.2,0.2-0.3l0,0
				c0.1-0.1,0.2-0.2,0.3-0.2c0.1-0.1,0.2-0.1,0.3-0.2l0,0c0.1-0.1,0.2-0.1,0.4-0.1l0,0c0.1,0,0.3-0.1,0.4-0.1c0.1,0,0.3,0,0.4-0.1
				s0.3,0,0.5,0l1.2,0v-0.3l0,0c0-0.1,0-0.3,0-0.4c0-0.1-0.1-0.2-0.1-0.3l0,0c-0.1-0.1-0.1-0.2-0.2-0.3c-0.1-0.1-0.2-0.1-0.3-0.2
				l0,0c-0.1,0-0.2-0.1-0.3-0.1c-0.1,0-0.2,0-0.4,0l0,0c-0.1,0-0.2,0-0.4,0c-0.1,0-0.2,0-0.3,0.1c-0.1,0-0.2,0.1-0.3,0.1
				c-0.1,0-0.2,0.1-0.3,0.1l0,0c-0.1,0-0.2,0.1-0.2,0.1s-0.2,0.1-0.2,0.1l-0.1,0l0-0.1l-0.4-0.7l0-0.1l0.1,0
				c0.2-0.1,0.4-0.2,0.6-0.3c0.2-0.1,0.4-0.2,0.6-0.2l0,0c0.2-0.1,0.4-0.1,0.6-0.1c0.2,0,0.4,0,0.6,0l0,0c0.2,0,0.4,0,0.7,0.1
				c0.2,0,0.4,0.1,0.6,0.2l0,0c0.2,0.1,0.3,0.2,0.5,0.3c0.1,0.1,0.3,0.3,0.4,0.4c0.1,0.2,0.2,0.4,0.2,0.6c0.1,0.2,0.1,0.5,0.1,0.7
				l0,0v2.2c0,0.2,0,0.4,0,0.6s0,0.3,0,0.5s0,0.3,0,0.4s0,0.2,0,0.3s0,0.2,0,0.2l0,0c0,0.1,0,0.1,0,0.2l0,0.1L70.2,45.7z M69,44
				v-1.5l-1.1,0l0,0c-0.1,0-0.3,0-0.4,0l0,0c-0.1,0-0.2,0-0.3,0c-0.1,0-0.2,0-0.3,0.1c-0.1,0-0.2,0.1-0.2,0.1l0,0
				c-0.1,0-0.2,0.1-0.2,0.2c-0.1,0.1-0.1,0.1-0.2,0.2c0,0.1-0.1,0.2-0.1,0.3c0,0.1,0,0.2,0,0.3c0,0.1,0,0.2,0,0.3l0,0
				c0,0.1,0.1,0.2,0.1,0.3l0,0c0,0.1,0.1,0.2,0.2,0.2l0,0c0.1,0.1,0.1,0.1,0.2,0.2l0,0c0.1,0,0.2,0.1,0.3,0.1c0.1,0,0.2,0,0.3,0l0,0
				c0.1,0,0.2,0,0.3,0l0,0c0.1,0,0.2,0,0.3-0.1l0,0c0.1,0,0.2-0.1,0.2-0.1l0,0c0.1,0,0.1-0.1,0.2-0.1l0,0c0.1,0,0.1-0.1,0.2-0.1
				s0.1-0.1,0.2-0.1l0,0c0.1,0,0.1-0.1,0.2-0.1l0,0L69,44z"/>
			<path id="Caminho_3634" class="st1" d="M60.9,45.7h-1.1v-9.2h4.6l0,0.1l-0.3,0.9l0,0.1h-3v3h3v1h-3L60.9,45.7L60.9,45.7z"/>
		</g>
		<g id="Grupo_2764">
			<path id="Caminho_3635" class="st2" d="M95.9,32.3c-2,0-4-0.6-5.7-1.7l1.5-2.7c1.2,0.9,2.6,1.4,4.1,1.4c1.3,0,2.8-0.5,2.8-1.9
				c0-2.4-4.4-2.8-6.6-5.3c-0.8-0.9-1.2-2-1.1-3.2c0-2.7,2.2-5.1,6.1-5.1c1.6,0,3.1,0.3,4.5,1.1l-0.1,3.2c-1.3-0.8-2.8-1.2-4.3-1.3
				c-1.3,0-2.4,0.6-2.4,1.6c0,3.1,7.7,2.8,7.7,8.5C102.5,30.2,99.6,32.3,95.9,32.3z"/>
			<path id="Caminho_3636" class="st2" d="M69.4,17.1h-5.8v4.3h5.7l0,3.1h-5.7v7.6h-3.8V14h10.5L69.4,17.1z"/>
			<path id="Caminho_3637" class="st2" d="M77.7,14h3.1l7.4,18h-4.1l-1.6-4.3h-6.4L74.6,32h-3.9L77.7,14L77.7,14z M81.4,24.5
				L81.4,24.5c-0.6-1.9-1.5-4.2-1.9-5.6c0-0.1-0.1-0.1-0.2-0.1c-0.1,0-0.1,0.1-0.1,0.1c-0.4,1.4-1.2,3.7-1.9,5.6H81.4z"/>
			<path id="Caminho_3638" class="st2" d="M110.2,32.3c-2,0-4-0.6-5.7-1.7l1.4-2.7c1.2,0.9,2.6,1.4,4.1,1.4c1.3,0,2.8-0.5,2.8-1.9
				c0-2.4-4.4-2.8-6.6-5.3c-0.8-0.9-1.2-2-1.2-3.2c0-2.7,2.2-5.1,6.1-5.1c1.6,0,3.1,0.3,4.5,1.1l-0.1,3.2c-1.3-0.8-2.8-1.2-4.3-1.3
				c-1.3,0-2.4,0.6-2.4,1.6c0,3.1,7.7,2.8,7.7,8.5C116.7,30.2,113.8,32.3,110.2,32.3z"/>
		</g>
	</g>
</g>
</svg>
