<svg xmlns="http://www.w3.org/2000/svg" xmlns:xlink="http://www.w3.org/1999/xlink" width="150" height="60" viewBox="0 0 150 60">
  <defs>
    <clipPath id="clip-logos_svg">
      <rect width="150" height="60"/>
    </clipPath>
  </defs>
  <g id="logos_svg" clip-path="url(#clip-logos_svg)">
    <g id="logo_modulo_desktop_neg" transform="translate(-192.59 -205.79)">
      <g id="Grupo_2740" data-name="Grupo 2740" transform="translate(195.59 206.79)">
        <path id="Caminho_3411" data-name="Caminho 3411" d="M219,213.676c.059-.075.532-.67.876-.67s.478.411.517.65c.085.525.191,1.287.391,2.524.294,1.812.647,3.906.647,3.906-1.915.376-6.5,1.453-8.014,1.886,1.614-2.648,4.609-7.053,5.583-8.3Zm13.046,8.137c2.871-.14,5.9-.163,6.151-.162.725.008,1.323.077,1.437.392.148.414-.179.9-.7,1.265-.111.08-1.838,1.218-3.69,2.468C232.4,227.686,228.86,230,228.86,230c.021.068-1.354-6.176-1.617-7.847,0,0,2.368-.226,4.8-.344Zm-18.631,18.494s-6.7-5.574-7.052-5.877c0,0,4.24-7.945,5.56-9.963.812-.225,7.036-1.369,9.97-1.718,0,0,.873,4.825,2.176,10.376,0,0-8.621,5.722-10.653,7.182Zm13.881,5.128h0c-1.041-3.568-2.082-7.523-2.082-7.523l-7.982,5.646s9.252,8.12,11.033,9.689a4.89,4.89,0,0,0,.568.41c.322.148.572.067.69-.136a1.255,1.255,0,0,0-.016-.949c-.46-1.426-1.4-4.343-2.211-7.137Zm-25.3,3.08h0c2.268-1.552,9.339-6.657,9.339-6.657-1.205-1.064-6.1-5.241-6.1-5.241s-3.954,8.352-4.937,10.488a3.1,3.1,0,0,0-.356,1.513c.073.256.279.879,1.318.37.129-.066.615-.388.738-.472Zm-2.224-19.311h0c.986.8,5.026,3.992,5.026,3.992.567-.991.558-1.082,1.935-3.494.6-1.044,1.456-2.433,2.732-4.665a87.144,87.144,0,0,0-9.391,2.8,3.308,3.308,0,0,0-.427.2.632.632,0,0,0-.313.468c-.018.351.329.613.438.7Zm35.774,23.51c-.818-2.194-1.82-4.906-2.671-7.709-1.6-5.26-2.924-10.344-2.888-10.367,1.024-.682,10.177-6.9,16.791-10.67.1-.059,2.047-1.148,2.235-2.507a2.5,2.5,0,0,0-.117-1.1c-.33-.99-1.167-1.877-3.519-2.024a67.106,67.106,0,0,0-8.639-.142,80.589,80.589,0,0,0-9.983.966s-1.109-6.813-1.508-9.612a6,6,0,0,0-.495-1.689,2.228,2.228,0,0,0-1.548-1.026,2.946,2.946,0,0,0-.5-.048h-.051a2.232,2.232,0,0,0-1.3.417,7.016,7.016,0,0,0-1.167,1.387c-1.774,2.49-6.765,9.861-9.256,14.069,0,0-7.769,2.386-12.5,4.357-1.395.58-1.529,1.276-1.565,1.652-.027.275-.013.988,1.089,1.912,1.381,1.158,5.712,4.732,5.712,4.732-1.531,2.419-7.416,14.422-7.986,17.761a3.48,3.48,0,0,0,.548,2.872,2.77,2.77,0,0,0,2.05,1c1,.015,2.371-1.046,2.953-1.464,4.681-3.348,13.829-10.364,13.829-10.364,3.444,3.092,10.72,9.756,14.57,13.33.448.417,1.868,1.736,3.251,1.759a3.525,3.525,0,0,0,3.615-2.962A10.193,10.193,0,0,0,235.542,252.715Z" transform="translate(-195.59 -206.79)" fill="#bfce18" fill-rule="evenodd"/>
      </g>
      <g id="Grupo_2741" data-name="Grupo 2741" transform="translate(252.806 218.831)">
        <path id="Caminho_3412" data-name="Caminho 3412" d="M378.929,327.065a4.229,4.229,0,0,1-4.387-4.536,4.5,4.5,0,0,1,4.617-4.672,4.739,4.739,0,0,1,2.311.518l-.013,1.2a4.036,4.036,0,0,0-2.309-.669,3.283,3.283,0,0,0-3.294,3.537,3.2,3.2,0,0,0,3.238,3.524,4.514,4.514,0,0,0,2.144-.574l.356.943A5.3,5.3,0,0,1,378.929,327.065Z" transform="translate(-374.542 -294.387)" fill="#fff" fill-rule="evenodd"/>
        <path id="Caminho_3413" data-name="Caminho 3413" d="M400.9,326.5a1.558,1.558,0,0,0-1.46,1.718h2.869A1.545,1.545,0,0,0,400.9,326.5Zm-1.447,2.662a1.963,1.963,0,0,0,2.036,2.089,3.172,3.172,0,0,0,1.569-.449l.344.8a3.725,3.725,0,0,1-2.145.671c-2.106,0-3.073-1.655-3.073-3.456,0-1.858,1.078-3.3,2.733-3.3,1.693,0,2.678,1.323,2.678,3.331v.315Z" transform="translate(-390.626 -299.595)" fill="#fff" fill-rule="evenodd"/>
        <path id="Caminho_3414" data-name="Caminho 3414" d="M422.908,332.134v-3.92c0-.75-.124-1.6-1.066-1.6a3.126,3.126,0,0,0-1.887.9v4.615h-1.2v-6.458h1.012l.149.737a3.667,3.667,0,0,1,2.295-.9c.943,0,1.913.639,1.913,2.3v4.326Z" transform="translate(-404.619 -299.595)" fill="#fff" fill-rule="evenodd"/>
        <path id="Caminho_3415" data-name="Caminho 3415" d="M440.576,328.724a1.3,1.3,0,0,1-1.463-1.423v-4.207h-1.078v-.968h1.078v-1.448l1.218-.383v1.831h2l-.4.968h-1.6v3.8c0,.533.2.779.629.779a2,2,0,0,0,1.116-.423l.358.818A3.384,3.384,0,0,1,440.576,328.724Z" transform="translate(-417.735 -296.046)" fill="#fff" fill-rule="evenodd"/>
        <path id="Caminho_3416" data-name="Caminho 3416" d="M457.7,326.848a1.472,1.472,0,0,0-.673-.148,2.2,2.2,0,0,0-1.352.708v4.725h-1.216v-6.458h1.012l.152.724a2.543,2.543,0,0,1,1.816-.887,1.361,1.361,0,0,1,.738.218Z" transform="translate(-428.908 -299.595)" fill="#fff" fill-rule="evenodd"/>
        <path id="Caminho_3417" data-name="Caminho 3417" d="M467.109,328.885c0,1.434.68,2.392,1.816,2.392s1.787-.972,1.787-2.392c0-1.436-.653-2.377-1.814-2.377s-1.789.955-1.789,2.377Zm3.961-2.5a3.967,3.967,0,0,1-.029,5.04,3.144,3.144,0,0,1-4.232.056,3.995,3.995,0,0,1-.012-5.11,3.067,3.067,0,0,1,4.273.014Z" transform="translate(-436.676 -299.595)" fill="#fff" fill-rule="evenodd"/>
        <path id="Caminho_3418" data-name="Caminho 3418" d="M382.993,368.114a3.569,3.569,0,0,1-2.676.929,3,3,0,0,1-3.389-3.4V359.9h1.218v5.711a2.541,2.541,0,0,0,.6,1.775,2.124,2.124,0,0,0,1.6.586,2.327,2.327,0,0,0,1.751-.586,2.441,2.441,0,0,0,.533-1.693V359.9h1.213v5.874A3.285,3.285,0,0,1,382.993,368.114Z" transform="translate(-376.165 -322.991)" fill="#fff" fill-rule="evenodd"/>
        <path id="Caminho_3419" data-name="Caminho 3419" d="M407.353,373.964v-3.921c0-.751-.122-1.6-1.064-1.6a3.107,3.107,0,0,0-1.885.905v4.616h-1.2V367.5h1.012l.147.736a3.67,3.67,0,0,1,2.3-.9c.943,0,1.913.64,1.913,2.295v4.328Z" transform="translate(-394.038 -328.05)" fill="#fff" fill-rule="evenodd"/>
        <path id="Caminho_3420" data-name="Caminho 3420" d="M424.041,368.294v-6.46h1.2v6.46Zm1.4-8.5a.815.815,0,0,1-.805.805.8.8,0,1,1,.805-.805Z" transform="translate(-408.074 -322.379)" fill="#fff" fill-rule="evenodd"/>
        <path id="Caminho_3421" data-name="Caminho 3421" d="M434.57,374.352h-.912l-2.528-6.5h1.24l1.766,4.917h.027l1.928-4.917h1.171Z" transform="translate(-413.037 -328.397)" fill="#fff" fill-rule="evenodd"/>
        <path id="Caminho_3422" data-name="Caminho 3422" d="M453.662,368.322a1.559,1.559,0,0,0-1.46,1.721h2.867a1.546,1.546,0,0,0-1.407-1.721Zm-1.447,2.665a1.963,1.963,0,0,0,2.035,2.09,3.2,3.2,0,0,0,1.571-.451l.343.807a3.746,3.746,0,0,1-2.146.669c-2.1,0-3.075-1.652-3.075-3.457,0-1.858,1.08-3.3,2.734-3.3,1.694,0,2.675,1.324,2.675,3.333v.313Z" transform="translate(-426.515 -328.05)" fill="#fff" fill-rule="evenodd"/>
        <path id="Caminho_3423" data-name="Caminho 3423" d="M474.751,368.679a1.416,1.416,0,0,0-.671-.151,2.2,2.2,0,0,0-1.354.711v4.726h-1.215V367.5h1.012l.15.722a2.558,2.558,0,0,1,1.816-.885,1.385,1.385,0,0,1,.738.217Z" transform="translate(-440.508 -328.05)" fill="#fff" fill-rule="evenodd"/>
        <path id="Caminho_3424" data-name="Caminho 3424" d="M485.333,374.1a3.773,3.773,0,0,1-2.077-.529l.439-.918a3.017,3.017,0,0,0,1.622.5c.752,0,1.27-.329,1.27-.874,0-1.435-2.95-.916-2.95-3.171,0-.982.752-1.773,2.253-1.773a4.205,4.205,0,0,1,1.709.341v1.037a3.98,3.98,0,0,0-1.667-.4c-.626,0-1.1.22-1.1.738,0,1.3,3,.943,3,3.1C487.833,373.543,486.67,374.1,485.333,374.1Z" transform="translate(-448.498 -328.05)" fill="#fff" fill-rule="evenodd"/>
        <path id="Caminho_3425" data-name="Caminho 3425" d="M500.666,368.294v-6.46h1.2v6.46Zm1.406-8.5a.815.815,0,0,1-.806.805.8.8,0,1,1,.806-.805Z" transform="translate(-460.2 -322.379)" fill="#fff" fill-rule="evenodd"/>
        <path id="Caminho_3426" data-name="Caminho 3426" d="M510.4,370.556a1.3,1.3,0,0,1-1.461-1.42v-4.208h-1.079v-.97h1.079v-1.449l1.214-.38v1.829h1.995l-.4.97h-1.6v3.8c0,.532.2.78.63.78a2.013,2.013,0,0,0,1.12-.424l.355.82A3.363,3.363,0,0,1,510.4,370.556Z" transform="translate(-465.237 -324.504)" fill="#fff" fill-rule="evenodd"/>
        <path id="Caminho_3427" data-name="Caminho 3427" d="M526.359,361.1h-1.037l1.19-2.007h1.539l-1.692,2.007Zm.873,4.2-1.157.041c-1.068.041-1.519.4-1.519,1.051a1.061,1.061,0,0,0,1.188,1.094,1.962,1.962,0,0,0,1.488-.628v-1.557Zm.356,3.059-.273-.612a2.7,2.7,0,0,1-1.938.749,1.948,1.948,0,0,1-2.024-2.009c0-1.3.944-2.062,2.637-2.118l1.258-.04c0-.08,0-.2,0-.244a1.2,1.2,0,0,0-1.352-1.354,2.831,2.831,0,0,0-1.683.56l-.449-.821a3.784,3.784,0,0,1,2.365-.735c1.35,0,2.336.572,2.336,2.238v2.173a8.631,8.631,0,0,0,.121,2.212Z" transform="translate(-475.774 -322.437)" fill="#fff" fill-rule="evenodd"/>
        <path id="Caminho_3428" data-name="Caminho 3428" d="M547.09,368.679a1.41,1.41,0,0,0-.665-.151,2.183,2.183,0,0,0-1.356.711v4.726h-1.213V367.5h1.011l.15.722a2.546,2.546,0,0,1,1.814-.885,1.375,1.375,0,0,1,.738.217Z" transform="translate(-489.722 -328.05)" fill="#fff" fill-rule="evenodd"/>
        <path id="Caminho_3429" data-name="Caminho 3429" d="M558.409,368.294v-6.46h1.206v6.46Zm1.409-8.5a.816.816,0,0,1-.806.805.8.8,0,1,1,.806-.805Z" transform="translate(-499.484 -322.379)" fill="#fff" fill-rule="evenodd"/>
        <path id="Caminho_3430" data-name="Caminho 3430" d="M567.108,370.714c0,1.436.683,2.393,1.817,2.393s1.789-.972,1.789-2.393-.655-2.377-1.814-2.377-1.792.956-1.792,2.377Zm3.963-2.5a3.587,3.587,0,0,1,.885,2.516,3.551,3.551,0,0,1-.914,2.527,3.15,3.15,0,0,1-4.234.056,3.994,3.994,0,0,1-.016-5.112,3.079,3.079,0,0,1,4.279.013Z" transform="translate(-504.701 -328.05)" fill="#fff" fill-rule="evenodd"/>
        <path id="Caminho_3431" data-name="Caminho 3431" d="M391.7,266.513v-9.887c0-.65,0-1.3.052-1.931H391.7a14.554,14.554,0,0,1-1.115,1.877l-3.313,5.078h-1.71l-3.693-5.216a11.81,11.81,0,0,1-1.144-1.739h-.052c.029.681.029,1.3.029,1.82v10h-3.7v-17.9h3.419l4.7,6.709a21.462,21.462,0,0,1,1.3,2.009h.027a17.131,17.131,0,0,1,1.223-2.118l4.293-6.6H395.4v17.9Z" transform="translate(-376.22 -247.282)" fill="#fff" fill-rule="evenodd"/>
        <path id="Caminho_3432" data-name="Caminho 3432" d="M450.045,250.987h-2.853L449.449,247h4.045l-3.449,3.992Zm-1.52,4.157c-1.93,0-2.822,1.658-2.822,3.858,0,2.309,1.084,3.884,2.9,3.884,1.957,0,2.855-1.682,2.855-3.884,0-2.309-1.087-3.858-2.935-3.858Zm4.888,8.611a6.606,6.606,0,0,1-11.462-4.67,6.964,6.964,0,0,1,1.9-4.917,6.458,6.458,0,0,1,4.725-1.9,6.587,6.587,0,0,1,4.942,1.925,7.359,7.359,0,0,1-.108,9.564Z" transform="translate(-420.399 -246.182)" fill="#fff" fill-rule="evenodd"/>
        <path id="Caminho_3433" data-name="Caminho 3433" d="M497.872,253.551a6.091,6.091,0,0,0-1.385-.137,3.453,3.453,0,0,0-3.721,3.722,3.61,3.61,0,0,0,3.721,3.776,7.108,7.108,0,0,0,1.385-.135v-7.225Zm-1.658,10.4c-3.937,0-7.115-2.308-7.115-6.627,0-3.993,2.962-6.79,7.278-6.79a11.886,11.886,0,0,1,1.494.082v-6.166h3.667v18.416A11.545,11.545,0,0,1,496.214,263.952Z" transform="translate(-452.472 -244.451)" fill="#fff" fill-rule="evenodd"/>
        <path id="Caminho_3434" data-name="Caminho 3434" d="M545.606,277.264l-.57-1.25a5.705,5.705,0,0,1-3.856,1.52c-1.684,0-4.509-.843-4.509-5.16v-7.958h3.671v7.767a2.167,2.167,0,0,0,2.278,2.473,3.6,3.6,0,0,0,2.146-.844v-9.4h3.7V274.3a11.123,11.123,0,0,0,.215,2.962Z" transform="translate(-484.834 -258.033)" fill="#fff" fill-rule="evenodd"/>
        <path id="Caminho_3435" data-name="Caminho 3435" d="M585.787,263.952c-2.311,0-3.18-1.3-3.18-2.988V244.451h3.7v14.912c0,.868.137,1.275.786,1.275a4.629,4.629,0,0,0,1.031-.137l.464,2.746A5.734,5.734,0,0,1,585.787,263.952Z" transform="translate(-516.084 -244.451)" fill="#fff" fill-rule="evenodd"/>
        <path id="Caminho_3436" data-name="Caminho 3436" d="M611.331,266.359c-1.927,0-2.824,1.658-2.824,3.858,0,2.309,1.086,3.884,2.905,3.884,1.958,0,2.852-1.682,2.852-3.884,0-2.309-1.082-3.858-2.933-3.858Zm4.887,8.611a6.605,6.605,0,0,1-11.46-4.67,6.959,6.959,0,0,1,1.905-4.917,6.456,6.456,0,0,1,4.721-1.9,6.585,6.585,0,0,1,4.944,1.925,7.357,7.357,0,0,1-.11,9.564Z" transform="translate(-531.152 -257.397)" fill="#fff" fill-rule="evenodd"/>
      </g>
    </g>
  </g>
</svg>
