<?xml version="1.0" encoding="utf-8"?>
<!-- Generator: Adobe Illustrator 25.4.1, SVG Export Plug-In . SVG Version: 6.00 Build 0)  -->
<svg version="1.1" id="Camada_1" xmlns="http://www.w3.org/2000/svg" xmlns:xlink="http://www.w3.org/1999/xlink" x="0px" y="0px"
	 width="123.8px" height="60px" viewBox="0 0 123.8 60" style="enable-background:new 0 0 123.8 60;" xml:space="preserve">
<style type="text/css">
	.st0{fill-rule:evenodd;clip-rule:evenodd;fill:#00A1ED;}
	.st1{fill-rule:evenodd;clip-rule:evenodd;fill:#FFFFFF;}
</style>
<g>
	<g id="Grupo_2689" transform="translate(226.236 206.791)">
		<path id="Caminho_2915" class="st0" d="M-202.2-198.8c0.1-0.1,0.5-0.7,0.9-0.7s0.5,0.4,0.5,0.6c0.1,0.5,0.2,1.3,0.4,2.5
			c0.3,1.8,0.6,3.8,0.6,3.8c-1.9,0.4-6.4,1.4-7.9,1.8C-206.1-193.2-203.1-197.5-202.2-198.8L-202.2-198.8z M-189.4-190.8
			c2.8-0.1,5.8-0.2,6-0.2c0.7,0,1.3,0.1,1.4,0.4c0.1,0.4-0.2,0.9-0.7,1.2c-0.1,0.1-1.8,1.2-3.6,2.4c-2.8,1.9-6.3,4.1-6.3,4.1
			c0,0.1-1.3-6.1-1.6-7.7C-194.1-190.4-191.8-190.7-189.4-190.8L-189.4-190.8z M-207.7-172.7c0,0-6.6-5.5-6.9-5.8
			c0,0,4.2-7.8,5.4-9.8c0.8-0.2,6.9-1.3,9.8-1.7c0,0,0.9,4.7,2.1,10.2C-197.2-179.7-205.7-174.1-207.7-172.7L-207.7-172.7z
			 M-194.1-167.6L-194.1-167.6c-1-3.5-2-7.4-2-7.4l-7.8,5.5c0,0,9.1,8,10.8,9.5c0.2,0.1,0.4,0.3,0.6,0.4c0.3,0.1,0.6,0.1,0.7-0.1
			c0.1-0.3,0.1-0.6,0-0.9C-192.3-162-193.3-164.9-194.1-167.6L-194.1-167.6z M-218.9-164.6L-218.9-164.6c2.2-1.5,9.2-6.5,9.2-6.5
			c-1.2-1-6-5.1-6-5.1s-3.9,8.2-4.8,10.3c-0.2,0.5-0.4,1-0.3,1.5c0.1,0.3,0.3,0.9,1.3,0.4C-219.5-164.2-219-164.5-218.9-164.6
			L-218.9-164.6z M-221-183.5L-221-183.5c1,0.8,4.9,3.9,4.9,3.9c0.6-1,0.5-1.1,1.9-3.4c0.6-1,1.4-2.4,2.7-4.6
			c-3.1,0.7-6.2,1.7-9.2,2.7c-0.1,0.1-0.3,0.1-0.4,0.2c-0.2,0.1-0.3,0.3-0.3,0.5C-221.5-183.9-221.1-183.6-221-183.5L-221-183.5z
			 M-186-160.5c-0.8-2.1-1.8-4.8-2.6-7.6c-1.6-5.2-2.9-10.1-2.8-10.2c1-0.7,10-6.8,16.5-10.5c0.1-0.1,2-1.1,2.2-2.5
			c0-0.4,0-0.7-0.1-1.1c-0.3-1-1.1-1.8-3.5-2c-2.8-0.2-5.6-0.3-8.5-0.1c-3.3,0.1-6.5,0.4-9.8,0.9c0,0-1.1-6.7-1.5-9.4
			c-0.1-0.6-0.2-1.1-0.5-1.7c-0.3-0.5-0.9-0.9-1.5-1c-0.2,0-0.3,0-0.5,0h-0.1c-0.5,0-0.9,0.1-1.3,0.4c-0.4,0.4-0.8,0.9-1.1,1.4
			c-1.7,2.4-6.6,9.7-9.1,13.8c0,0-7.6,2.3-12.3,4.3c-1.4,0.6-1.5,1.2-1.5,1.6c0,0.3,0,1,1.1,1.9c1.4,1.1,5.6,4.6,5.6,4.6
			c-1.5,2.4-7.3,14.1-7.8,17.4c-0.2,1,0,2,0.5,2.8c0.5,0.6,1.2,1,2,1c1,0,2.3-1,2.9-1.4c4.6-3.3,13.6-10.2,13.6-10.2
			c3.4,3,10.5,9.6,14.3,13.1c0.4,0.4,1.8,1.7,3.2,1.7c1.7,0.1,3.3-1.2,3.5-2.9C-185-157.6-185.3-159.1-186-160.5z"/>
	</g>
	<path id="Caminho_2916" class="st1" d="M61.5,45.1c-2.3,0.1-4.2-1.7-4.3-4c0-0.2,0-0.3,0-0.5c-0.1-2.4,1.8-4.5,4.2-4.6
		c0.1,0,0.2,0,0.3,0c0.8,0,1.6,0.2,2.3,0.5l0,1.2c-0.7-0.4-1.5-0.7-2.3-0.7c-1.8,0-3.2,1.4-3.2,3.2c0,0.1,0,0.2,0,0.3
		c-0.2,1.7,1.1,3.3,2.8,3.4c0.1,0,0.2,0,0.4,0c0.7,0,1.5-0.2,2.1-0.6l0.3,0.9C63.3,44.8,62.4,45.1,61.5,45.1z"/>
	<path id="Caminho_2917" class="st1" d="M67.2,39.4c-0.8,0.1-1.5,0.8-1.4,1.6c0,0,0,0,0,0.1h2.8C68.7,40.3,68.1,39.5,67.2,39.4
		C67.3,39.4,67.2,39.4,67.2,39.4L67.2,39.4z M65.8,42c-0.1,1.1,0.7,2,1.8,2c0.1,0,0.1,0,0.2,0c0.5,0,1.1-0.2,1.5-0.4l0.3,0.8
		c-0.6,0.4-1.3,0.7-2.1,0.7c-2.1,0-3-1.6-3-3.4c0-1.8,1.1-3.2,2.7-3.2c1.7,0,2.6,1.3,2.6,3.3V42L65.8,42z"/>
	<path id="Caminho_2918" class="st1" d="M75.1,45v-3.8c0-0.7-0.1-1.6-1-1.6c-0.7,0.1-1.4,0.4-1.9,0.9V45H71v-6.3h1l0.1,0.7
		c0.6-0.5,1.4-0.9,2.3-0.9c0.9,0,1.9,0.6,1.9,2.3V45L75.1,45z"/>
	<path id="Caminho_2919" class="st1" d="M79.5,45.1c-0.7,0.1-1.3-0.4-1.4-1.1c0-0.1,0-0.2,0-0.3v-4.1h-1.1v-0.9h1.1v-1.4l1.2-0.4
		v1.8h2l-0.4,0.9h-1.6v3.7c0,0.5,0.2,0.8,0.6,0.8c0.4,0,0.8-0.2,1.1-0.4l0.4,0.8C80.8,44.8,80.2,45.1,79.5,45.1z"/>
	<path id="Caminho_2920" class="st1" d="M85.4,39.8c-0.2-0.1-0.4-0.2-0.7-0.1c-0.5,0.1-1,0.3-1.3,0.7V45h-1.2v-6.3h1l0.1,0.7
		c0.4-0.5,1.1-0.8,1.8-0.9c0.3,0,0.5,0.1,0.7,0.2L85.4,39.8z"/>
	<path id="Caminho_2921" class="st1" d="M87,41.8c0,1.4,0.7,2.3,1.8,2.3s1.8-1,1.8-2.3c0-1.4-0.6-2.3-1.8-2.3S87,40.4,87,41.8z
		 M90.9,39.3c1.2,1.4,1.2,3.5,0,4.9c-1.2,1.1-3,1.1-4.2,0.1c-1.2-1.4-1.2-3.6,0-5C87.9,38.2,89.7,38.2,90.9,39.3L90.9,39.3z"/>
	<path id="Caminho_2922" class="st1" d="M63.9,57.3c-0.7,0.7-1.7,1-2.6,0.9c-0.9,0.1-1.8-0.2-2.5-0.8c-0.6-0.7-0.9-1.6-0.9-2.5v-5.6
		h1.2v5.6c0,0.6,0.2,1.3,0.6,1.7c0.4,0.4,1,0.6,1.6,0.6c0.6,0.1,1.2-0.2,1.7-0.6c0.4-0.5,0.6-1.1,0.5-1.7v-5.7h1.2V55
		C64.7,55.9,64.4,56.7,63.9,57.3z"/>
	<path id="Caminho_2923" class="st1" d="M70.2,58.1v-3.8c0-0.7-0.1-1.6-1-1.6c-0.7,0.1-1.4,0.4-1.9,0.9v4.5h-1.2v-6.3h1l0.1,0.7
		c0.6-0.5,1.4-0.9,2.3-0.9c0.9,0,1.9,0.6,1.9,2.3v4.2H70.2z"/>
	<path id="Caminho_2924" class="st1" d="M72.8,58.1v-6.3H74v6.3H72.8z M74.2,49.7c0,0.4-0.4,0.8-0.8,0.8c-0.4,0-0.8-0.4-0.8-0.8
		S73,49,73.4,49C73.8,49,74.2,49.3,74.2,49.7z"/>
	<path id="Caminho_2925" class="st1" d="M78.3,58.1h-0.9l-2.5-6.4h1.2l1.7,4.8h0l1.9-4.8h1.1L78.3,58.1z"/>
	<path id="Caminho_2926" class="st1" d="M83.8,52.5c-0.8,0-1.5,0.8-1.4,1.6c0,0,0,0,0,0.1h2.8C85.3,53.4,84.7,52.6,83.8,52.5
		C83.8,52.5,83.8,52.5,83.8,52.5L83.8,52.5z M82.4,55.2c-0.1,1.1,0.7,2,1.8,2c0.1,0,0.1,0,0.2,0c0.5,0,1.1-0.2,1.5-0.4l0.3,0.8
		c-0.6,0.4-1.4,0.7-2.1,0.7c-2.1,0-3-1.6-3-3.4c0-1.8,1.1-3.2,2.7-3.2c1.7,0,2.6,1.3,2.6,3.3c0,0.1,0,0.2,0,0.3L82.4,55.2z"/>
	<path id="Caminho_2927" class="st1" d="M90.7,52.9c-0.2-0.1-0.4-0.2-0.7-0.1c-0.5,0.1-1,0.3-1.3,0.7v4.6h-1.2v-6.3h1l0.1,0.7
		c0.4-0.5,1.1-0.8,1.8-0.9c0.3,0,0.5,0.1,0.7,0.2L90.7,52.9z"/>
	<path id="Caminho_2928" class="st1" d="M93.3,58.2c-0.7,0-1.4-0.2-2-0.5l0.4-0.9c0.5,0.3,1,0.5,1.6,0.5c0.7,0,1.2-0.3,1.2-0.9
		c0-1.4-2.9-0.9-2.9-3.1c0-1,0.7-1.7,2.2-1.7c0.6,0,1.1,0.1,1.7,0.3v1c-0.5-0.2-1.1-0.4-1.6-0.4c-0.6,0-1.1,0.2-1.1,0.7
		c0,1.3,2.9,0.9,2.9,3C95.7,57.7,94.6,58.2,93.3,58.2z"/>
	<path id="Caminho_2929" class="st1" d="M96.8,58.1v-6.3H98v6.3H96.8z M98.2,49.7c0,0.4-0.4,0.8-0.8,0.8c-0.4,0-0.8-0.4-0.8-0.8
		c0-0.4,0.4-0.8,0.8-0.8C97.9,49,98.2,49.3,98.2,49.7z"/>
	<path id="Caminho_2930" class="st1" d="M101.5,58.2c-0.7,0.1-1.3-0.4-1.4-1.1c0-0.1,0-0.2,0-0.3v-4.1H99v-1h1.1v-1.4l1.2-0.4v1.8h2
		l-0.4,1h-1.6v3.7c0,0.5,0.2,0.8,0.6,0.8c0.4,0,0.8-0.2,1.1-0.4l0.3,0.8C102.7,58,102.1,58.2,101.5,58.2z"/>
	<path id="Caminho_2931" class="st1" d="M106.8,51h-1l1.2-2h1.5L106.8,51z M107.6,55.1l-1.1,0c-1,0-1.5,0.4-1.5,1
		c0,0.6,0.4,1.1,1,1.1c0.1,0,0.1,0,0.2,0c0.6,0,1.1-0.2,1.5-0.6V55.1L107.6,55.1z M108,58.1l-0.3-0.6c-0.5,0.5-1.2,0.8-1.9,0.7
		c-1.1,0-1.9-0.8-2-1.8c0,0,0-0.1,0-0.1c0-1.3,0.9-2,2.6-2.1l1.2,0c0-0.1,0-0.2,0-0.2c0.1-0.6-0.4-1.2-1-1.3c-0.1,0-0.2,0-0.3,0
		c-0.6,0-1.2,0.2-1.7,0.5l-0.4-0.8c0.7-0.5,1.5-0.7,2.3-0.7c1.3,0,2.3,0.6,2.3,2.2v2.1c-0.1,0.7,0,1.5,0.1,2.2L108,58.1z"/>
	<path id="Caminho_2932" class="st1" d="M113.4,52.9c-0.2-0.1-0.4-0.2-0.7-0.1c-0.5,0.1-1,0.3-1.3,0.7v4.6h-1.2v-6.3h1l0.1,0.7
		c0.4-0.5,1.1-0.8,1.8-0.9c0.3,0,0.5,0.1,0.7,0.2L113.4,52.9z"/>
	<path id="Caminho_2933" class="st1" d="M115,58.1v-6.3h1.2v6.3H115z M116.3,49.7c0,0.4-0.4,0.8-0.8,0.8c-0.4,0-0.8-0.4-0.8-0.8
		c0-0.4,0.4-0.8,0.8-0.8C116,49,116.3,49.3,116.3,49.7z"/>
	<path id="Caminho_2934" class="st1" d="M118.4,54.9c0,1.4,0.7,2.3,1.8,2.3s1.8-1,1.8-2.3s-0.6-2.3-1.8-2.3S118.4,53.5,118.4,54.9z
		 M122.3,52.4c1.2,1.4,1.2,3.5,0,4.9c-1.2,1.1-3,1.1-4.2,0.1c-1.2-1.4-1.2-3.6,0-5C119.2,51.3,121.1,51.3,122.3,52.4L122.3,52.4z"/>
	<path id="Caminho_2935" class="st1" d="M71.2,30c-1.6,1.4-3.7,2.2-5.8,2c-2.6,0-4.5-0.6-5.7-1.8c-1.2-1.3-1.8-3.1-1.7-4.9v-11h3.6
		v10.7c0,1,0.3,2.1,1,2.9c0.8,0.8,1.8,1.2,2.9,1.1c1.1,0.1,2.2-0.3,3.1-1.1c0.6-0.8,0.9-1.7,0.9-2.7V14.3H73V25
		C73.1,26.8,72.4,28.7,71.2,30z"/>
	<path id="Caminho_2936" class="st1" d="M81.4,17.3h-1.9v11.5h2c4.3,0,6-2.7,6-5.8C87.5,19.6,85.4,17.3,81.4,17.3L81.4,17.3z
		 M81.4,31.8h-5.5V14.3h5.8c6.2,0,9.7,3.4,9.7,8.6C91.4,28.3,87.4,31.8,81.4,31.8L81.4,31.8z"/>
	<path id="Caminho_2937" class="st1" d="M103.1,17.3h-5.6v4.2h5.5l0,3h-5.5v7.4h-3.6V14.3h10.2L103.1,17.3z"/>
</g>
</svg>
